<svg xmlns="http://www.w3.org/2000/svg" style="display: none;" role="img">
  <defs>
    <!-- EDUCATION ICONS -->
    <symbol id="icon-html" viewBox="0 0 434.147 434.147">
      <desc>Html Icon</desc>
      <path fill="var(--var-xray)" d="M27.336 14.372l28.177 360.474a13.333 13.333 0 009.263 11.67l148.268 47.008c2.622.831 5.437.831 8.059 0l148.268-47.008a13.333 13.333 0 009.263-11.67l28.177-360.474C407.417 6.622 401.292 0 393.519 0H40.629c-7.773 0-13.898 6.622-13.293 14.372zm307.217 111.843H150.918l5.542 51.105h174.099L319.17 323.013l-102.096 32.369-102.096-32.369-5.95-76.116h53.588v37.336l55.89 15 55.556-15 4.31-59.503H107.295L95.937 79.419H338.21l-3.657 46.796z"/>
    </symbol>
    <symbol id="icon-css" viewBox="0 0 512 512">
      <desc>Css Icon</desc>
      <path fill="var(--var-xray)" d="M32 0l40.8 460.8L256 512l183.136-51.168L480 0H32zm360.768 150.688l-5.152 57.888-15.52 173.568L256 414.208l-.064.032-116-32.128-8.128-90.752h56.832l4.224 47.104 63.072 17.024.064-.064 63.136-17.024 8.608-78.432-198.656.544-5.632-53.664 209.056-2.432 4.224-57.44-218.88.608-3.68-53.376h283.648l-5.056 56.48z"/>
    </symbol>
    <symbol id="icon-pug" viewBox="0 0 512.071 512.071">
      <desc>Pug Icon</desc>
      <path fill="var(--var-xray)" d="M148.044 200.096c-15.537 0-28.016 12.586-28.016 28 0 15.464 12.536 28 28 28 15.537 0 28.016-12.586 28.016-28 0-15.463-12.536-28-28-28zM364.028 256.096c15.537 0 28.016-12.586 28.016-28 0-15.464-12.536-28-28-28-15.537 0-28.016 12.586-28.016 28 0 15.464 12.536 28 28 28z"/>
      <path fill="var(--var-xray)" d="M510.813 217.942c-12.772-30.677-47.446-104.073-79.617-120.158-22.16-11.074-52.201-9.966-76.647-5.98-44.015-15.904-153.715-15.65-197.027 0-24.454-3.987-54.491-5.091-76.647 5.98-32.047 16.024-66.972 89.788-79.617 120.158-2.853 6.848-.845 15.092 5.894 19.467.09.063 16.875 11.967 16.875 26.687 0 23.904 18.314 57.697 47.666 63.207 10.621 26.889 29.497 34.88 33.156 45.853 3.459 10.377 14.42 26.147 69.437 43.222 52.912 16.421 83.726 15.719 81.75 15.719 22.53 0 59.428-8.791 81.75-15.719 55.017-17.074 65.978-32.845 69.437-43.222 3.658-10.972 22.533-18.96 33.156-45.853 29.351-5.509 47.666-39.303 47.666-63.207 0-14.721 16.785-26.624 16.875-26.687 6.757-4.387 8.736-12.643 5.893-19.467zM56.044 264.096c0-20.026-11.552-35.439-20.59-44.434 9.396-20.831 39.393-83.08 59.743-93.254 6.498-3.247 15.605-5.038 26.522-5.351-29.359 39.775-59.137 110.285-57.605 164.539-4.934-6.901-8.07-15.694-8.07-21.5zm214.566-22.133c-7.34 8.123-21.779 8.155-29.147 0 7.455-2.497 21.683-2.5 29.147 0zm-83.332 144.915c-15.076-30.836-28.096-75.291-15.92-87.468 16.846-16.844 28.89-32.597 43.54-39.525 6.085 8.383 15.25 14.553 25.13 17.706v20.563c-19.419 5.135-35.84 20.202-45.337 36.981a15.897 15.897 0 00-2.774 8.974c0 16.788 22.802 22.252 30.325 7.094.122.061.109.025.05.14l.052-.097c.109.056 11.88-23.144 33.692-23.15 21.472.006 33.607 23.014 33.727 23.247l-.046-.092.01-.005.052.097c-.059-.116-.072-.079.05-.14 7.522 15.157 30.325 9.696 30.325-7.094 0-3.331-1.032-6.413-2.774-8.974-9.582-16.929-25.99-31.865-45.337-36.981v-20.563c9.875-3.152 19.042-9.32 25.13-17.706 14.647 6.927 26.688 22.674 43.541 39.525 12.176 12.177-.844 56.631-15.92 87.468-28.98 8.676-56.476 13.217-68.758 13.219-12.282-.003-39.778-4.543-68.758-13.219zm260.681-101.282c1.545-54.699-28.696-125.374-57.604-164.538 10.917.313 20.024 2.104 26.522 5.351 20.35 10.174 50.347 72.423 59.743 93.254-9.038 8.994-20.59 24.407-20.59 44.434-.002 5.805-3.137 14.598-8.071 21.499zM345.355 122.507a16.05 16.05 0 002.405 1.035c19.774 9.29 68.269 95.318 68.269 156.555 0 58.498-28.256 50.981-39.063 82.597-.905 1.4-4.076 4.226-10.771 7.94 10.832-30.231 19.867-71.146-2.836-93.85-19.422-19.425-35.915-41.769-62.608-49.73-11.776-21.592-48.09-18.956-44.714-18.956-16.925 0-36.571 4.025-44.714 18.956-26.687 7.96-43.186 30.306-62.608 49.73-22.701 22.701-13.672 63.61-2.836 93.85-6.696-3.714-9.866-6.54-10.772-7.94-10.795-31.583-39.063-24.137-39.063-82.597 0-61.64 48.738-147.379 68.268-156.555.833-.275 1.633-.63 2.405-1.035 35.401-14.047 143.674-13.874 178.638 0z"/>
    </symbol>
    <symbol id="icon-sass" viewBox="0 0 547.827 547.827">>
      <desc>Sass Icon</desc>
      <path fill="var(--var-xray)" d="M273.915-.001c151.278 0 273.913 122.636 273.913 273.914 0 151.279-122.635 273.914-273.913 273.914C122.636 547.827 0 425.192 0 273.913 0 122.635 122.636 0 273.915 0"/>
      <path fill="var(--var-light)" d="M219.479 365.155c3.985 14.741 3.548 28.488-.568 40.937a67.462 67.462 0 01-3.282 8.104c-3.174 6.587-7.434 12.752-12.652 18.443-15.914 17.362-38.15 23.928-47.685 18.396-10.296-5.968-5.139-30.448 13.313-49.952 19.851-20.986 48.412-34.478 48.412-34.478l-.044-.085c.823-.443 1.659-.899 2.506-1.365zm226.253-247.918C433.328 68.59 352.664 52.597 276.32 79.72c-45.433 16.14-94.619 41.473-129.984 74.553-42.05 39.331-48.755 73.563-45.99 87.867 9.748 50.472 78.905 83.463 107.334 107.94v.148c-8.383 4.127-69.739 35.177-84.097 66.922-15.15 33.489 2.411 57.52 14.038 60.755 36.026 10.023 72.994-8.005 92.86-37.638 19.172-28.598 17.576-65.526 9.244-83.895 11.494-3.032 24.892-4.39 41.92-2.401 48.05 5.612 57.478 35.614 55.675 48.168-1.801 12.557-11.88 19.461-15.25 21.545-3.37 2.085-4.398 2.807-4.114 4.356.408 2.253 1.968 2.17 4.841 1.683 3.955-.667 25.231-10.214 26.14-33.391 1.159-29.427-27.041-62.344-76.973-61.484-20.564.355-33.495 2.31-42.835 5.787a95.823 95.823 0 00-2.12-2.344c-30.869-32.935-87.934-56.232-85.514-100.508.88-16.096 6.474-58.482 109.652-109.895 84.52-42.115 152.181-30.525 163.874-4.84 16.703 36.695-36.161 104.897-123.936 114.735-33.441 3.749-51.049-9.212-55.429-14.039-4.612-5.081-5.299-5.31-7.02-4.357-2.805 1.553-1.028 6.04 0 8.714 2.62 6.82 13.375 18.915 31.71 24.931 16.127 5.293 55.391 8.201 102.875-10.165 53.18-20.572 94.708-77.796 82.511-125.63"/>
    </symbol>
    <!-- FOOTER ICONS -->
    <symbol id="icon-git" viewBox="0 0 50 50">
      <desc>Git Icon</desc>
      <path fill="var(--var-xray)" d="M46.794 22.088L27.912 3.206C27.108 2.402 26.054 2 25 2s-2.108.402-2.912 1.206L18.354 6.94l4.624 4.624a3.992 3.992 0 014.85.607c1.316 1.316 1.509 3.316.607 4.85l4.543 4.543a3.992 3.992 0 014.85.607 4 4 0 01-5.657 5.657c-1.316-1.316-1.509-3.316-.607-4.85l-4.543-4.543c-.324.19-.666.33-1.021.421v12.285c1.722.446 3 1.997 3 3.859a4 4 0 01-8 0 3.991 3.991 0 013-3.859V18.857a3.962 3.962 0 01-1.828-1.028c-1.316-1.316-1.509-3.316-.607-4.85L16.94 8.354 3.206 22.088a4.117 4.117 0 000 5.823l18.882 18.882C22.892 47.598 23.946 48 25 48s2.108-.402 2.912-1.206l18.882-18.882a4.119 4.119 0 000-5.824z"/>
    </symbol>
    <symbol id="icon-github" viewBox="0 0 512 512">
      <desc>Github Icon</desc>
      <path d='M255.968 5.329C114.624 5.329 0 120.401 0 262.353c0 113.536 73.344 209.856 175.104 243.872 12.8 2.368 17.472-5.568 17.472-12.384 0-6.112-.224-22.272-.352-43.712-71.2 15.52-86.24-34.464-86.24-34.464-11.616-29.696-28.416-37.6-28.416-37.6-23.264-15.936 1.728-15.616 1.728-15.616 25.696 1.824 39.2 26.496 39.2 26.496 22.848 39.264 59.936 27.936 74.528 21.344 2.304-16.608 8.928-27.936 16.256-34.368-56.832-6.496-116.608-28.544-116.608-127.008 0-28.064 9.984-51.008 26.368-68.992-2.656-6.496-11.424-32.64 2.496-68 0 0 21.504-6.912 70.4 26.336 20.416-5.696 42.304-8.544 64.096-8.64 21.728.128 43.648 2.944 64.096 8.672 48.864-33.248 70.336-26.336 70.336-26.336 13.952 35.392 5.184 61.504 2.56 68 16.416 17.984 26.304 40.928 26.304 68.992 0 98.72-59.84 120.448-116.864 126.816 9.184 7.936 17.376 23.616 17.376 47.584 0 34.368-.32 62.08-.32 70.496 0 6.88 4.608 14.88 17.6 12.352C438.72 472.145 512 375.857 512 262.353 512 120.401 397.376 5.329 255.968 5.329z'/>
    </symbol>
    <symbol id="icon-email" viewBox="0 0 184 184" >>
      <desc>Email Icon</desc>
      <path d="M160.746 24.61H23.254C10.432 24.61 0 35.042 0 47.864v88.271c0 12.822 10.432 23.254 23.254 23.254h137.492c12.822 0 23.254-10.432 23.254-23.254V47.864c0-12.822-10.432-23.254-23.254-23.254zm-3.633 15L92 89.909 26.887 39.61h130.226zm3.633 104.78H23.254c-4.551 0-8.254-3.703-8.254-8.254V49.382l72.415 55.94c1.35 1.043 2.968 1.564 4.585 1.564s3.235-.521 4.585-1.564L169 49.382v86.753c0 4.552-3.703 8.255-8.254 8.255z"/>
    </symbol>
    <symbol id="icon-codepen" viewBox="0 0 24 24">
      <desc>Codepen Icon</desc>
      <path d="M.455 16.512l10.969 7.314c.374.23.774.233 1.152 0l10.969-7.314c.281-.187.455-.522.455-.857V8.343c0-.335-.174-.67-.455-.857L12.576.173a1.044 1.044 0 00-1.152 0L.455 7.486A1.048 1.048 0 000 8.343v7.312c0 .335.174.67.455.857zm10.514 4.528l-8.076-5.384 3.603-2.411 4.473 2.987zm2.062 0v-4.808l4.473-2.987 3.603 2.411zm8.907-7.314l-2.585-1.727 2.585-1.728zM13.031 2.959l8.076 5.384-3.603 2.411-4.473-2.987zM12 9.561l3.643 2.438L12 14.437l-3.643-2.438zm-1.031-6.602v4.808l-4.473 2.987-3.603-2.411zm-8.906 7.314v-.001L4.648 12l-2.585 1.728z"/>
    </symbol>
    <symbol id="icon-linkedin" viewBox="0 0 382 382">
      <desc>Linkedin Icon</desc>
      <path d="M347.445 0H34.555C15.471 0 0 15.471 0 34.555v312.889C0 366.529 15.471 382 34.555 382h312.889C366.529 382 382 366.529 382 347.444V34.555C382 15.471 366.529 0 347.445 0zM118.207 329.844c0 5.554-4.502 10.056-10.056 10.056H65.345c-5.554 0-10.056-4.502-10.056-10.056V150.403c0-5.554 4.502-10.056 10.056-10.056h42.806c5.554 0 10.056 4.502 10.056 10.056v179.441zM86.748 123.432c-22.459 0-40.666-18.207-40.666-40.666S64.289 42.1 86.748 42.1s40.666 18.207 40.666 40.666-18.206 40.666-40.666 40.666zM341.91 330.654a9.247 9.247 0 01-9.246 9.246H286.73a9.247 9.247 0 01-9.246-9.246v-84.168c0-12.556 3.683-55.021-32.813-55.021-28.309 0-34.051 29.066-35.204 42.11v97.079a9.246 9.246 0 01-9.246 9.246h-44.426a9.247 9.247 0 01-9.246-9.246V149.593a9.247 9.247 0 019.246-9.246h44.426a9.247 9.247 0 019.246 9.246v15.655c10.497-15.753 26.097-27.912 59.312-27.912 73.552 0 73.131 68.716 73.131 106.472v86.846z"/>
    </symbol>
    <!-- LIGHT/DARK THEME -->
    <symbol id="icon-sun" viewBox="0 0 24 24">
      <desc>Sun Icon</desc>
      <path d="M12,7A5,5 0 0,1 17,12A5,5 0 0,1 12,17A5,5 0 0,1 7,12A5,5 0 0,1 12,7M12,9A3,3 0 0,0 9,12A3,3 0 0,0 12,15A3,3 0 0,0 15,12A3,3 0 0,0 12,9M12,2L14.39,5.42C13.65,5.15 12.84,5 12,5C11.16,5 10.35,5.15 9.61,5.42L12,2M3.34,7L7.5,6.65C6.9,7.16 6.36,7.78 5.94,8.5C5.5,9.24 5.25,10 5.11,10.79L3.34,7M3.36,17L5.12,13.23C5.26,14 5.53,14.78 5.95,15.5C6.37,16.24 6.91,16.86 7.5,17.37L3.36,17M20.65,7L18.88,10.79C18.74,10 18.47,9.23 18.05,8.5C17.63,7.78 17.1,7.15 16.5,6.64L20.65,7M20.64,17L16.5,17.36C17.09,16.85 17.62,16.22 18.04,15.5C18.46,14.77 18.73,14 18.87,13.21L20.64,17M12,22L9.59,18.56C10.33,18.83 11.14,19 12,19C12.82,19 13.63,18.83 14.37,18.56L12,22Z" />
    </symbol>
    <symbol id="icon-moon" viewBox="0 0 24 24">
      <desc>Moon Icon</desc>
      <path d="M17.75,4.09L15.22,6.03L16.13,9.09L13.5,7.28L10.87,9.09L11.78,6.03L9.25,4.09L12.44,4L13.5,1L14.56,4L17.75,4.09M21.25,11L19.61,12.25L20.2,14.23L18.5,13.06L16.8,14.23L17.39,12.25L15.75,11L17.81,10.95L18.5,9L19.19,10.95L21.25,11M18.97,15.95C19.8,15.87 20.69,17.05 20.16,17.8C19.84,18.25 19.5,18.67 19.08,19.07C15.17,23 8.84,23 4.94,19.07C1.03,15.17 1.03,8.83 4.94,4.93C5.34,4.53 5.76,4.17 6.21,3.85C6.96,3.32 8.14,4.21 8.06,5.04C7.79,7.9 8.75,10.87 10.95,13.06C13.14,15.26 16.1,16.22 18.97,15.95M17.33,17.97C14.5,17.81 11.7,16.64 9.53,14.5C7.36,12.31 6.2,9.5 6.04,6.68C3.23,9.82 3.34,14.64 6.35,17.66C9.37,20.67 14.19,20.78 17.33,17.97Z" />
    </symbol>
    <!-- VSCODE ICONS -->
    <symbol id="icon-debugger" viewBox="0 0 512 512">
      <desc>Debugger Icon</desc>
      <path d="M318.865 181.874c-8.284 0-15 6.716-15 15v9.252h-7.917c-7.53-14.398-22.606-24.252-39.948-24.252s-32.418 9.854-39.948 24.252h-7.917v-9.252c0-8.284-6.716-15-15-15s-15 6.716-15 15v24.252c0 8.284 6.716 15 15 15h17.806v39.748h-17.806c-8.284 0-15 6.716-15 15v24.252c0 8.284 6.716 15 15 15s15-6.716 15-15v-9.252h8.047c7.574 14.261 22.577 23.999 39.818 23.999s32.245-9.738 39.818-23.999h8.047v9.252c0 8.284 6.716 15 15 15s15-6.716 15-15v-24.252c0-8.284-6.716-15-15-15H301.06v-39.748h17.806c8.284 0 15-6.716 15-15v-24.252c-.001-8.284-6.717-15-15.001-15zM271 282.607c0-8.284-6.716-15-15-15s-15 6.716-15 15l-.06-55.674c0-8.304 6.756-15.06 15.06-15.06s15.06 6.756 15.06 15.06z M497 241h-30.666C458.965 136.654 375.346 53.035 271 45.666V15c0-8.284-6.716-15-15-15s-15 6.716-15 15v30.666C136.654 53.035 53.035 136.654 45.666 241H15c-8.284 0-15 6.716-15 15s6.716 15 15 15h30.666C53.035 375.346 136.654 458.965 241 466.334V497c0 8.284 6.716 15 15 15s15-6.716 15-15v-30.666c104.346-7.37 187.965-90.989 195.334-195.334H497c8.284 0 15-6.716 15-15s-6.716-15-15-15zM271 436.247v-19.428c0-8.284-6.716-15-15-15s-15 6.716-15 15v19.428C153.205 429.005 82.995 358.795 75.753 271h19.428c8.284 0 15-6.716 15-15s-6.716-15-15-15H75.753C82.995 153.205 153.205 82.995 241 75.753v19.428c0 8.284 6.716 15 15 15s15-6.716 15-15V75.753C358.795 82.995 429.005 153.205 436.247 241h-19.428c-8.284 0-15 6.716-15 15s6.716 15 15 15h19.428C429.005 358.795 358.795 429.005 271 436.247z"/>
    </symbol>
    <symbol id="icon-extension-blocks" viewBox="0 0 442.556 442.556">
      <desc>Extension Blocks Icon</desc>
      <path d="M84.355 85.534l-33.133 19.084c-6.479 3.732-8.715 12.041-4.982 18.523l19.084 33.131A10 10 0 0074 161.284a9.952 9.952 0 004.98-1.338c4.787-2.756 6.432-8.871 3.674-13.656l-15.871-27.553 27.555-15.873c4.785-2.758 6.43-8.871 3.674-13.656-2.756-4.786-8.869-6.434-13.657-3.674z M439.563 186.835l-73.24-132.881c-6.426-11.654-21.135-15.912-32.789-9.486l-108.645 59.881-48.354-83.941c-6.643-11.531-21.432-15.51-32.963-8.867L12.1 87.274c-5.586 3.219-9.586 8.42-11.26 14.645a23.969 23.969 0 002.393 18.318L78.965 251.71c4.463 7.748 12.598 12.084 20.955 12.084 4.084 0 8.223-1.035 12.008-3.217l10.51-6.053-38.588 57.092a23.975 23.975 0 00-3.699 18.098c1.225 6.332 4.84 11.805 10.182 15.414l125.707 84.963a24.022 24.022 0 0013.502 4.143 24.122 24.122 0 0020.012-10.623l84.963-125.707c5.426-8.025 5.355-18.174.666-25.977l94.893-52.303c11.653-6.424 15.91-21.133 9.487-32.789zm-337.616 56.412a4.143 4.143 0 01-5.652-1.52L20.563 110.254a4.142 4.142 0 011.519-5.65L153.555 28.87a4.143 4.143 0 015.65 1.519l48.164 83.613-6.715 3.703c-5.646 3.111-9.744 8.234-11.535 14.43a23.968 23.968 0 002.047 18.359l17.301 31.393-1.35.777-4.791-3.238a24.039 24.039 0 00-13.502-4.139 24.123 24.123 0 00-20.012 10.619l-20.83 30.82-46.035 26.521zm215.998 43.457l-84.961 125.705a4.147 4.147 0 01-3.443 1.824c-.83 0-1.604-.24-2.303-.711l-125.707-84.965a4.115 4.115 0 01-1.744-2.641 4.123 4.123 0 01.633-3.102l84.963-125.709a4.146 4.146 0 013.441-1.818c.83 0 1.605.238 2.303.709l125.707 84.961a4.144 4.144 0 011.111 5.747zm102.475-84.596l-101.645 56.023-72.43-48.953-37.664-68.338a4.117 4.117 0 01-.352-3.146 4.12 4.12 0 011.977-2.473l132.881-73.238a4.14 4.14 0 015.619 1.625l73.24 132.881a4.14 4.14 0 01-1.626 5.619z M348.242 92.741c-3.609-6.545-11.875-8.934-18.426-5.328l-33.484 18.457c-4.838 2.666-6.598 8.748-3.932 13.584 2.666 4.838 8.748 6.6 13.586 3.932l27.848-15.35 15.35 27.85a9.998 9.998 0 0013.584 3.93c4.838-2.666 6.598-8.748 3.932-13.584l-18.458-33.491zM173.139 333.723l-26.348-17.805 17.809-26.346c3.092-4.576 1.891-10.793-2.686-13.885-4.576-3.092-10.791-1.893-13.885 2.686l-21.412 31.678c-4.188 6.195-2.553 14.645 3.643 18.834l31.68 21.408a9.995 9.995 0 0013.885-2.685c3.091-4.576 1.888-10.791-2.686-13.885z"/>
    </symbol>
    <symbol id="icon-files" viewBox="0 0 24 24">
      <desc>Files Icon</desc>
      <path d="M15,7H20.5L15,1.5V7M8,0H16L22,6V18A2,2 0 0,1 20,20H8C6.89,20 6,19.1 6,18V2A2,2 0 0,1 8,0M4,4V22H20V24H4A2,2 0 0,1 2,22V4H4Z"/>
    </symbol>
    <symbol id="icon-search" viewBox="0 0 512 512">
      <desc>Search Icon</desc>
      <path d="M302.058 0C186.296 0 92.116 94.18 92.116 209.942c0 50.697 18.064 97.253 48.092 133.574L0 483.724 28.276 512l140.208-140.208c36.321 30.028 82.877 48.092 133.574 48.092C417.82 419.884 512 325.704 512 209.942S417.821 0 302.058 0zm0 379.895c-93.712 0-169.953-76.241-169.953-169.953S208.346 39.989 302.058 39.989s169.953 76.241 169.953 169.953-76.241 169.953-169.953 169.953z"/>
    </symbol>
    <symbol id="icon-source-control" viewBox="0 0 100 100">
      <desc>Source Control Icon</desc>
      <path d="M60.77,29.68a8,8,0,0,0-2,15.84v3.09a4,4,0,0,1-4,4H45.23a7.89,7.89,0,0,0-4,1.09V38.19a8,8,0,1,0-4,0V61.81a8.05,8.05,0,1,0,4,0v-1.2a4,4,0,0,1,4-4h9.54a8,8,0,0,0,8-8V45.52a8,8,0,0,0-2-15.84Zm-25.58.73a4,4,0,1,1,4,4.05A4.05,4.05,0,0,1,35.19,30.41Zm4,43.23a4,4,0,1,1,4.05-4A4.05,4.05,0,0,1,39.23,73.64ZM60.77,41.78a4.05,4.05,0,1,1,4-4.05A4.06,4.06,0,0,1,60.77,41.78Z"/>
    </symbol>
    <symbol id="icon-close" viewBox="0 0 24 24">
      <desc>Close Icon</desc>
      <path d="M13.46,12L19,17.54V19H17.54L12,13.46L6.46,19H5V17.54L10.54,12L5,6.46V5H6.46L12,10.54L17.54,5H19V6.46L13.46,12Z" />
    </symbol>

    <symbol id="icon-preview" viewBox="0 0 32 32">
      <desc>Preview Icon</desc>
      <path d="M16 6c-6.979 0-13.028 4.064-16 10 2.972 5.936 9.021 10 16 10s13.027-4.064 16-10c-2.972-5.936-9.021-10-16-10zM23.889 11.303c1.88 1.199 3.473 2.805 4.67 4.697-1.197 1.891-2.79 3.498-4.67 4.697-2.362 1.507-5.090 2.303-7.889 2.303s-5.527-0.796-7.889-2.303c-1.88-1.199-3.473-2.805-4.67-4.697 1.197-1.891 2.79-3.498 4.67-4.697 0.122-0.078 0.246-0.154 0.371-0.228-0.311 0.854-0.482 1.776-0.482 2.737 0 4.418 3.582 8 8 8s8-3.582 8-8c0-0.962-0.17-1.883-0.482-2.737 0.124 0.074 0.248 0.15 0.371 0.228v0zM16 13c0 1.657-1.343 3-3 3s-3-1.343-3-3 1.343-3 3-3 3 1.343 3 3z"/>
    </symbol>
    <symbol id="icon-download" viewBox="0 0 32 32">
      <path d="M27.844 11.252c-0.101-4.022-3.389-7.252-7.433-7.252-2.369 0-4.477 1.109-5.839 2.835-0.764-0.987-1.959-1.624-3.303-1.624-2.307 0-4.176 1.871-4.176 4.179 0 0.201 0.015 0.399 0.043 0.592-0.351-0.063-0.711-0.098-1.080-0.098-3.344-0-6.054 2.712-6.054 6.058s2.71 6.058 6.054 6.058h2.868l7.078 7.328 7.078-7.328 3.484-0c3.004-0.006 5.438-2.444 5.438-5.451 0-2.565-1.771-4.716-4.156-5.296zM16 26l-6-6h4v-6h4v6h4l-6 6z"></path>
    </symbol>

  </defs>
</svg>
