<svg xmlns="http://www.w3.org/2000/svg" style="display: none;" role="img">
  <defs>
    <symbol id="icon-html" viewBox="0 0 434.147 434.147">
      <desc>Html Icon</desc>
      <path d="M27.336 14.372l28.177 360.474a13.333 13.333 0 009.263 11.67l148.268 47.008c2.622.831 5.437.831 8.059 0l148.268-47.008a13.333 13.333 0 009.263-11.67l28.177-360.474C407.417 6.622 401.292 0 393.519 0H40.629c-7.773 0-13.898 6.622-13.293 14.372zm307.217 111.843H150.918l5.542 51.105h174.099L319.17 323.013l-102.096 32.369-102.096-32.369-5.95-76.116h53.588v37.336l55.89 15 55.556-15 4.31-59.503H107.295L95.937 79.419H338.21l-3.657 46.796z"/>
    </symbol>
    <symbol id="icon-css" viewBox="0 0 512 512">
      <desc>Css Icon</desc>
      <path d="M32 0l40.8 460.8L256 512l183.136-51.168L480 0H32zm360.768 150.688l-5.152 57.888-15.52 173.568L256 414.208l-.064.032-116-32.128-8.128-90.752h56.832l4.224 47.104 63.072 17.024.064-.064 63.136-17.024 8.608-78.432-198.656.544-5.632-53.664 209.056-2.432 4.224-57.44-218.88.608-3.68-53.376h283.648l-5.056 56.48z"/>
    </symbol>
    <symbol id="icon-pug" viewBox="0 0 512.071 512.071">
      <desc>Pug Icon</desc>
      <path d="M148.044 200.096c-15.537 0-28.016 12.586-28.016 28 0 15.464 12.536 28 28 28 15.537 0 28.016-12.586 28.016-28 0-15.463-12.536-28-28-28zM364.028 256.096c15.537 0 28.016-12.586 28.016-28 0-15.464-12.536-28-28-28-15.537 0-28.016 12.586-28.016 28 0 15.464 12.536 28 28 28z"/>
      <path d="M510.813 217.942c-12.772-30.677-47.446-104.073-79.617-120.158-22.16-11.074-52.201-9.966-76.647-5.98-44.015-15.904-153.715-15.65-197.027 0-24.454-3.987-54.491-5.091-76.647 5.98-32.047 16.024-66.972 89.788-79.617 120.158-2.853 6.848-.845 15.092 5.894 19.467.09.063 16.875 11.967 16.875 26.687 0 23.904 18.314 57.697 47.666 63.207 10.621 26.889 29.497 34.88 33.156 45.853 3.459 10.377 14.42 26.147 69.437 43.222 52.912 16.421 83.726 15.719 81.75 15.719 22.53 0 59.428-8.791 81.75-15.719 55.017-17.074 65.978-32.845 69.437-43.222 3.658-10.972 22.533-18.96 33.156-45.853 29.351-5.509 47.666-39.303 47.666-63.207 0-14.721 16.785-26.624 16.875-26.687 6.757-4.387 8.736-12.643 5.893-19.467zM56.044 264.096c0-20.026-11.552-35.439-20.59-44.434 9.396-20.831 39.393-83.08 59.743-93.254 6.498-3.247 15.605-5.038 26.522-5.351-29.359 39.775-59.137 110.285-57.605 164.539-4.934-6.901-8.07-15.694-8.07-21.5zm214.566-22.133c-7.34 8.123-21.779 8.155-29.147 0 7.455-2.497 21.683-2.5 29.147 0zm-83.332 144.915c-15.076-30.836-28.096-75.291-15.92-87.468 16.846-16.844 28.89-32.597 43.54-39.525 6.085 8.383 15.25 14.553 25.13 17.706v20.563c-19.419 5.135-35.84 20.202-45.337 36.981a15.897 15.897 0 00-2.774 8.974c0 16.788 22.802 22.252 30.325 7.094.122.061.109.025.05.14l.052-.097c.109.056 11.88-23.144 33.692-23.15 21.472.006 33.607 23.014 33.727 23.247l-.046-.092.01-.005.052.097c-.059-.116-.072-.079.05-.14 7.522 15.157 30.325 9.696 30.325-7.094 0-3.331-1.032-6.413-2.774-8.974-9.582-16.929-25.99-31.865-45.337-36.981v-20.563c9.875-3.152 19.042-9.32 25.13-17.706 14.647 6.927 26.688 22.674 43.541 39.525 12.176 12.177-.844 56.631-15.92 87.468-28.98 8.676-56.476 13.217-68.758 13.219-12.282-.003-39.778-4.543-68.758-13.219zm260.681-101.282c1.545-54.699-28.696-125.374-57.604-164.538 10.917.313 20.024 2.104 26.522 5.351 20.35 10.174 50.347 72.423 59.743 93.254-9.038 8.994-20.59 24.407-20.59 44.434-.002 5.805-3.137 14.598-8.071 21.499zM345.355 122.507a16.05 16.05 0 002.405 1.035c19.774 9.29 68.269 95.318 68.269 156.555 0 58.498-28.256 50.981-39.063 82.597-.905 1.4-4.076 4.226-10.771 7.94 10.832-30.231 19.867-71.146-2.836-93.85-19.422-19.425-35.915-41.769-62.608-49.73-11.776-21.592-48.09-18.956-44.714-18.956-16.925 0-36.571 4.025-44.714 18.956-26.687 7.96-43.186 30.306-62.608 49.73-22.701 22.701-13.672 63.61-2.836 93.85-6.696-3.714-9.866-6.54-10.772-7.94-10.795-31.583-39.063-24.137-39.063-82.597 0-61.64 48.738-147.379 68.268-156.555.833-.275 1.633-.63 2.405-1.035 35.401-14.047 143.674-13.874 178.638 0z"/>
    </symbol>
    <symbol id="icon-sass" viewBox="0 0 547.827 547.827">>
      <desc>Sass Icon</desc>  
      <path d="M273.915-.001c151.278 0 273.913 122.636 273.913 273.914 0 151.279-122.635 273.914-273.913 273.914C122.636 547.827 0 425.192 0 273.913 0 122.635 122.636 0 273.915 0"/>
      <path fill="#fff" d="M219.479 365.155c3.985 14.741 3.548 28.488-.568 40.937a67.462 67.462 0 01-3.282 8.104c-3.174 6.587-7.434 12.752-12.652 18.443-15.914 17.362-38.15 23.928-47.685 18.396-10.296-5.968-5.139-30.448 13.313-49.952 19.851-20.986 48.412-34.478 48.412-34.478l-.044-.085c.823-.443 1.659-.899 2.506-1.365zm226.253-247.918C433.328 68.59 352.664 52.597 276.32 79.72c-45.433 16.14-94.619 41.473-129.984 74.553-42.05 39.331-48.755 73.563-45.99 87.867 9.748 50.472 78.905 83.463 107.334 107.94v.148c-8.383 4.127-69.739 35.177-84.097 66.922-15.15 33.489 2.411 57.52 14.038 60.755 36.026 10.023 72.994-8.005 92.86-37.638 19.172-28.598 17.576-65.526 9.244-83.895 11.494-3.032 24.892-4.39 41.92-2.401 48.05 5.612 57.478 35.614 55.675 48.168-1.801 12.557-11.88 19.461-15.25 21.545-3.37 2.085-4.398 2.807-4.114 4.356.408 2.253 1.968 2.17 4.841 1.683 3.955-.667 25.231-10.214 26.14-33.391 1.159-29.427-27.041-62.344-76.973-61.484-20.564.355-33.495 2.31-42.835 5.787a95.823 95.823 0 00-2.12-2.344c-30.869-32.935-87.934-56.232-85.514-100.508.88-16.096 6.474-58.482 109.652-109.895 84.52-42.115 152.181-30.525 163.874-4.84 16.703 36.695-36.161 104.897-123.936 114.735-33.441 3.749-51.049-9.212-55.429-14.039-4.612-5.081-5.299-5.31-7.02-4.357-2.805 1.553-1.028 6.04 0 8.714 2.62 6.82 13.375 18.915 31.71 24.931 16.127 5.293 55.391 8.201 102.875-10.165 53.18-20.572 94.708-77.796 82.511-125.63"/>
    </symbol>
    <symbol id="icon-git" viewBox="0 0 50 50">
      <desc>Git Icon</desc>
      <path d="M46.794 22.088L27.912 3.206C27.108 2.402 26.054 2 25 2s-2.108.402-2.912 1.206L18.354 6.94l4.624 4.624a3.992 3.992 0 014.85.607c1.316 1.316 1.509 3.316.607 4.85l4.543 4.543a3.992 3.992 0 014.85.607 4 4 0 01-5.657 5.657c-1.316-1.316-1.509-3.316-.607-4.85l-4.543-4.543c-.324.19-.666.33-1.021.421v12.285c1.722.446 3 1.997 3 3.859a4 4 0 01-8 0 3.991 3.991 0 013-3.859V18.857a3.962 3.962 0 01-1.828-1.028c-1.316-1.316-1.509-3.316-.607-4.85L16.94 8.354 3.206 22.088a4.117 4.117 0 000 5.823l18.882 18.882C22.892 47.598 23.946 48 25 48s2.108-.402 2.912-1.206l18.882-18.882a4.119 4.119 0 000-5.824z"/>
    </symbol>
    <symbol id="icon-github" viewBox="0 0 512 512">
      <desc>Github Icon</desc>
      <path d='M255.968 5.329C114.624 5.329 0 120.401 0 262.353c0 113.536 73.344 209.856 175.104 243.872 12.8 2.368 17.472-5.568 17.472-12.384 0-6.112-.224-22.272-.352-43.712-71.2 15.52-86.24-34.464-86.24-34.464-11.616-29.696-28.416-37.6-28.416-37.6-23.264-15.936 1.728-15.616 1.728-15.616 25.696 1.824 39.2 26.496 39.2 26.496 22.848 39.264 59.936 27.936 74.528 21.344 2.304-16.608 8.928-27.936 16.256-34.368-56.832-6.496-116.608-28.544-116.608-127.008 0-28.064 9.984-51.008 26.368-68.992-2.656-6.496-11.424-32.64 2.496-68 0 0 21.504-6.912 70.4 26.336 20.416-5.696 42.304-8.544 64.096-8.64 21.728.128 43.648 2.944 64.096 8.672 48.864-33.248 70.336-26.336 70.336-26.336 13.952 35.392 5.184 61.504 2.56 68 16.416 17.984 26.304 40.928 26.304 68.992 0 98.72-59.84 120.448-116.864 126.816 9.184 7.936 17.376 23.616 17.376 47.584 0 34.368-.32 62.08-.32 70.496 0 6.88 4.608 14.88 17.6 12.352C438.72 472.145 512 375.857 512 262.353 512 120.401 397.376 5.329 255.968 5.329z'/>
    </symbol>
    <symbol id="icon-email" viewBox="0 0 184 184" >>
      <desc>Email Icon</desc>
      <path d="M160.746 24.61H23.254C10.432 24.61 0 35.042 0 47.864v88.271c0 12.822 10.432 23.254 23.254 23.254h137.492c12.822 0 23.254-10.432 23.254-23.254V47.864c0-12.822-10.432-23.254-23.254-23.254zm-3.633 15L92 89.909 26.887 39.61h130.226zm3.633 104.78H23.254c-4.551 0-8.254-3.703-8.254-8.254V49.382l72.415 55.94c1.35 1.043 2.968 1.564 4.585 1.564s3.235-.521 4.585-1.564L169 49.382v86.753c0 4.552-3.703 8.255-8.254 8.255z"/>
    </symbol>
    <symbol id="icon-codepen" viewBox="0 0 24 24">
      <desc>Codepen Icon</desc>
      <path d="M.455 16.512l10.969 7.314c.374.23.774.233 1.152 0l10.969-7.314c.281-.187.455-.522.455-.857V8.343c0-.335-.174-.67-.455-.857L12.576.173a1.044 1.044 0 00-1.152 0L.455 7.486A1.048 1.048 0 000 8.343v7.312c0 .335.174.67.455.857zm10.514 4.528l-8.076-5.384 3.603-2.411 4.473 2.987zm2.062 0v-4.808l4.473-2.987 3.603 2.411zm8.907-7.314l-2.585-1.727 2.585-1.728zM13.031 2.959l8.076 5.384-3.603 2.411-4.473-2.987zM12 9.561l3.643 2.438L12 14.437l-3.643-2.438zm-1.031-6.602v4.808l-4.473 2.987-3.603-2.411zm-8.906 7.314v-.001L4.648 12l-2.585 1.728z"/>
    </symbol> 
    <symbol id="icon-linkedin" viewBox="0 0 382 382">
      <desc>Linkedin Icon</desc>
      <path d="M347.445 0H34.555C15.471 0 0 15.471 0 34.555v312.889C0 366.529 15.471 382 34.555 382h312.889C366.529 382 382 366.529 382 347.444V34.555C382 15.471 366.529 0 347.445 0zM118.207 329.844c0 5.554-4.502 10.056-10.056 10.056H65.345c-5.554 0-10.056-4.502-10.056-10.056V150.403c0-5.554 4.502-10.056 10.056-10.056h42.806c5.554 0 10.056 4.502 10.056 10.056v179.441zM86.748 123.432c-22.459 0-40.666-18.207-40.666-40.666S64.289 42.1 86.748 42.1s40.666 18.207 40.666 40.666-18.206 40.666-40.666 40.666zM341.91 330.654a9.247 9.247 0 01-9.246 9.246H286.73a9.247 9.247 0 01-9.246-9.246v-84.168c0-12.556 3.683-55.021-32.813-55.021-28.309 0-34.051 29.066-35.204 42.11v97.079a9.246 9.246 0 01-9.246 9.246h-44.426a9.247 9.247 0 01-9.246-9.246V149.593a9.247 9.247 0 019.246-9.246h44.426a9.247 9.247 0 019.246 9.246v15.655c10.497-15.753 26.097-27.912 59.312-27.912 73.552 0 73.131 68.716 73.131 106.472v86.846z"/>
    </symbol> 
  </defs>
</svg>
