<svg xmlns="http://www.w3.org/2000/svg" style="display: none;" role="img">
  <defs>
    <symbol id="icon-html" viewBox="0 0 58 58">
      <desc>Html Icon</desc>
      <path d="M50.949 12.187l-1.361-1.361-9.504-9.505-.001-.001-.771-.771A1.867 1.867 0 0037.985 0H8.963C7.776 0 6.5.916 6.5 2.926V56c0 .837.841 1.652 1.836 1.909.051.014.1.033.152.043.156.031.315.048.475.048h40.074c.16 0 .319-.017.475-.048.052-.01.101-.029.152-.043.995-.257 1.836-1.072 1.836-1.909V13.978c0-.767-.093-1.334-.551-1.791zM39.5 3.565L47.935 12H39.5V3.565zM8.963 56c-.071 0-.135-.025-.198-.049a.46.46 0 01-.265-.414V41h41v14.537a.46.46 0 01-.265.414c-.063.024-.127.049-.198.049H8.963zM8.5 39V2.926c0-.217.033-.926.463-.926h28.595a1.54 1.54 0 00-.058.391V14h11.608c.135 0 .265-.025.391-.058l.001.036V39h-41z"/>
      <path d="M16.814 48.34h-4.361v-4.416h-1.668V54h1.668v-4.539h4.361V54h1.641V43.924h-1.641zM20.438 45.045h3.007V54H25.1v-8.955h3.007v-1.121h-7.669zM34.725 50.814l-2.995-6.89h-1.667V54h1.667v-6.932L34 52.674h1.449l2.256-5.606V54h1.668V43.924h-1.668zM43.57 43.924h-1.668V54h6.303v-1.244H43.57zM24.207 17.293a.999.999 0 00-1.414 0l-6 6a.999.999 0 000 1.414l6 6a.997.997 0 001.414 0 .999.999 0 000-1.414L18.914 24l5.293-5.293a.999.999 0 000-1.414zM36.207 17.293a.999.999 0 10-1.414 1.414L40.086 24l-5.293 5.293a.999.999 0 101.414 1.414l6-6a.999.999 0 000-1.414l-6-6z"/>
    </symbol>
    <symbol id="icon-css" viewBox="0 0 512 512">
      <desc>Css Icon</desc>
      <path d="M32 0l40.8 460.8L256 512l183.136-51.168L480 0H32zm360.768 150.688l-5.152 57.888-15.52 173.568L256 414.208l-.064.032-116-32.128-8.128-90.752h56.832l4.224 47.104 63.072 17.024.064-.064 63.136-17.024 8.608-78.432-198.656.544-5.632-53.664 209.056-2.432 4.224-57.44-218.88.608-3.68-53.376h283.648l-5.056 56.48z"/>
    </symbol>
    <symbol id="icon-pug" viewBox="0 0 512.071 512.071">
      <desc>Pug Icon</desc>
      <path d="M148.044 200.096c-15.537 0-28.016 12.586-28.016 28 0 15.464 12.536 28 28 28 15.537 0 28.016-12.586 28.016-28 0-15.463-12.536-28-28-28zM364.028 256.096c15.537 0 28.016-12.586 28.016-28 0-15.464-12.536-28-28-28-15.537 0-28.016 12.586-28.016 28 0 15.464 12.536 28 28 28z"/>
      <path d="M510.813 217.942c-12.772-30.677-47.446-104.073-79.617-120.158-22.16-11.074-52.201-9.966-76.647-5.98-44.015-15.904-153.715-15.65-197.027 0-24.454-3.987-54.491-5.091-76.647 5.98-32.047 16.024-66.972 89.788-79.617 120.158-2.853 6.848-.845 15.092 5.894 19.467.09.063 16.875 11.967 16.875 26.687 0 23.904 18.314 57.697 47.666 63.207 10.621 26.889 29.497 34.88 33.156 45.853 3.459 10.377 14.42 26.147 69.437 43.222 52.912 16.421 83.726 15.719 81.75 15.719 22.53 0 59.428-8.791 81.75-15.719 55.017-17.074 65.978-32.845 69.437-43.222 3.658-10.972 22.533-18.96 33.156-45.853 29.351-5.509 47.666-39.303 47.666-63.207 0-14.721 16.785-26.624 16.875-26.687 6.757-4.387 8.736-12.643 5.893-19.467zM56.044 264.096c0-20.026-11.552-35.439-20.59-44.434 9.396-20.831 39.393-83.08 59.743-93.254 6.498-3.247 15.605-5.038 26.522-5.351-29.359 39.775-59.137 110.285-57.605 164.539-4.934-6.901-8.07-15.694-8.07-21.5zm214.566-22.133c-7.34 8.123-21.779 8.155-29.147 0 7.455-2.497 21.683-2.5 29.147 0zm-83.332 144.915c-15.076-30.836-28.096-75.291-15.92-87.468 16.846-16.844 28.89-32.597 43.54-39.525 6.085 8.383 15.25 14.553 25.13 17.706v20.563c-19.419 5.135-35.84 20.202-45.337 36.981a15.897 15.897 0 00-2.774 8.974c0 16.788 22.802 22.252 30.325 7.094.122.061.109.025.05.14l.052-.097c.109.056 11.88-23.144 33.692-23.15 21.472.006 33.607 23.014 33.727 23.247l-.046-.092.01-.005.052.097c-.059-.116-.072-.079.05-.14 7.522 15.157 30.325 9.696 30.325-7.094 0-3.331-1.032-6.413-2.774-8.974-9.582-16.929-25.99-31.865-45.337-36.981v-20.563c9.875-3.152 19.042-9.32 25.13-17.706 14.647 6.927 26.688 22.674 43.541 39.525 12.176 12.177-.844 56.631-15.92 87.468-28.98 8.676-56.476 13.217-68.758 13.219-12.282-.003-39.778-4.543-68.758-13.219zm260.681-101.282c1.545-54.699-28.696-125.374-57.604-164.538 10.917.313 20.024 2.104 26.522 5.351 20.35 10.174 50.347 72.423 59.743 93.254-9.038 8.994-20.59 24.407-20.59 44.434-.002 5.805-3.137 14.598-8.071 21.499zM345.355 122.507a16.05 16.05 0 002.405 1.035c19.774 9.29 68.269 95.318 68.269 156.555 0 58.498-28.256 50.981-39.063 82.597-.905 1.4-4.076 4.226-10.771 7.94 10.832-30.231 19.867-71.146-2.836-93.85-19.422-19.425-35.915-41.769-62.608-49.73-11.776-21.592-48.09-18.956-44.714-18.956-16.925 0-36.571 4.025-44.714 18.956-26.687 7.96-43.186 30.306-62.608 49.73-22.701 22.701-13.672 63.61-2.836 93.85-6.696-3.714-9.866-6.54-10.772-7.94-10.795-31.583-39.063-24.137-39.063-82.597 0-61.64 48.738-147.379 68.268-156.555.833-.275 1.633-.63 2.405-1.035 35.401-14.047 143.674-13.874 178.638 0z"/>
    </symbol>
    <symbol id="icon-sass" viewBox="0 0 512 512">
      <desc>Sass Icon</desc>
      <path fill="white" d="M512 256c0 7.91-.355 15.726-1.066 23.448a245.065 245.065 0 01-2.299 18.119C488.782 419.182 383.227 512 256 512c-64.805 0-123.977-24.074-169.075-63.781a256.87 256.87 0 01-43.802-49.977C15.882 357.564 0 308.632 0 256 0 114.615 114.615 0 256 0s256 114.615 256 256z"/>
      <path d="M446.767 284.975c-7.764 2.936-7.45 2.988-11.557-4.493-5.245-9.529-8.035-19.55-8.276-30.448-.199-9.352 2.361-18.045 5.58-26.572 2.57-6.781-.773-9.174-6.646-9.791-4.274-.439-8.683-.397-12.967.042-11.139 1.139-12.236 2.1-15.193 12.915-1.755 6.416-3.156 12.884-6.071 18.975-7.189 14.994-15.36 29.435-23.74 43.771-1.505 2.581-2.748 5.36-4.869 7.565-6.071-9.091-8.359-19.132-8.871-29.665-.512-10.397 2.675-20.062 6.175-29.623 1.181-3.218.199-5.214-2.581-6.604-1.233-.616-2.612-1.191-3.96-1.296-7.147-.564-14.273-.481-21.243 1.473-3.135.867-5.183 2.623-5.883 6.144a93.771 93.771 0 01-6.343 20.01c-7.941 17.826-15.83 35.683-23.761 53.52-6.896 15.496-13.688 31.033-21.859 45.913-.575 1.055-1.055 2.884-2.497 2.518-1.463-.366-.951-2.163-1.014-3.396-.47-8.777 1.923-17.147 3.96-25.527 3.229-13.26 6.76-26.457 10.188-39.675.982-3.793-.669-6.343-3.814-8.161-4.524-2.602-9.028-2.727-13.928.919.669-5.392.961-10.125.731-14.858-.522-10.553-5.413-17.418-13.928-19.007-6.217-1.16-12.1.648-17.659 3.281-12.957 6.134-23.374 15.381-32.131 26.603-1.024 1.306-2.058 2.508-3.542 3.312-16.436 8.955-32.862 17.91-49.256 26.948-1.797 1.003-2.957.721-4.253-.669-8.255-8.85-17.836-16.154-27.324-23.562-13.26-10.365-26.979-20.187-38.421-32.684-6.687-7.314-12.267-15.329-15.057-25.004-4.556-15.82-1.149-30.553 6.437-44.554 8.976-16.562 22.288-29.351 36.968-40.741 23.312-18.077 48.88-32.434 75.828-44.251 30.177-13.218 61.482-21.734 94.824-20.449 13.208.512 26.028 2.8 37.794 9.268 8.328 4.577 13.845 11.191 15.402 20.898 1.829 11.368-.899 21.87-5.945 31.828-11.274 22.246-29.194 38.003-50.375 50.343-17.638 10.271-36.665 16.792-56.801 20.208-11.128 1.891-22.298 3.03-33.489 1.327-12.842-1.954-24.712-6.248-33.499-16.593-1.014-1.191-2.299-2.017-4.023-1.181-1.766.857-1.63 2.424-1.463 3.929.125 1.034.408 2.079.773 3.062 2.351 6.343 6.75 11.128 11.901 15.308 13.396 10.898 29.268 14.096 45.934 14.42 16.311.324 32.371-1.745 48.264-5.548 35.85-8.568 65.881-26.154 87.803-56.289 13.103-18.014 21.4-37.867 20.668-60.583-.47-14.409-5.319-27.136-15.82-37.48-12.487-12.278-27.982-18.453-44.607-22.162-18.516-4.117-37.219-4.702-56.111-2.445-16.436 1.964-32.496 5.329-48.128 10.71-23.918 8.244-47.02 18.369-69.13 30.678-22.653 12.601-44.001 27.032-62.725 45.108-16.572 15.997-30.814 33.646-38.839 55.557-3.427 9.383-5.893 19.028-3.594 29.174 2.947 13.061 9.383 24.367 17.847 34.565 12.8 15.444 28.505 27.606 44.701 39.225 13.009 9.341 26.624 17.847 39.121 27.888 3.542 2.842 3.521 2.842-.648 5.026-4.869 2.539-9.791 4.984-14.576 7.69-19.298 10.91-37.949 22.738-53.174 39.175-7.492 8.098-12.581 17.189-14.952 27.282a256.811 256.811 0 0043.802 49.977c28.432-2.215 50.197-17.011 66.278-41.482 7.764-11.818 11.4-25.192 12.769-39.299 1.202-12.434-.063-24.472-3.72-36.342-.637-2.09-3.009-4.169-2.079-6.008.867-1.693 3.48-2.55 5.402-3.657 7.753-4.504 15.527-8.944 23.51-13.531.345 1.714-.324 2.717-.616 3.803-4.577 16.792-7.764 33.719-4.284 51.169 2.163 10.867 5.768 21.096 12.622 30.093 7.053 9.258 22.8 8.202 29.194-.251 6.071-8.025 10.094-17.074 14.284-26.081 2.299-4.932 4.409-9.947 6.604-14.932-.408 5.998-.387 11.849-.167 17.68.219 5.747 1.139 11.421 4.127 16.499 3.594 6.102 10.355 7.879 16.635 4.618 6.625-3.438 11.139-9.101 14.649-15.245 15.057-26.425 29.027-53.415 40.594-81.596 2.466-5.987 4.995-11.964 7.785-18.62.428 2.184.711 3.521.972 4.859 2.57 13.427 7.147 26.133 13.772 38.076 1.421 2.56 1.264 4.326-.533 6.781-6.102 8.307-12.79 16.123-19.383 24.022-5.538 6.646-11.463 12.999-16.144 20.313-4.2 6.583-1.787 13.322 5.204 14.817 2.152.46 4.42.596 6.625.564 12.215-.146 23.489-3.793 33.991-9.77 14.137-8.056 22.518-19.864 22.131-36.676-.178-7.649-2.247-14.994-5.329-22.006-.679-1.557-.711-2.685.303-4.148 9.791-14.023 18.442-28.724 26.394-43.854 1.411-2.664 2.403-5.622 4.681-8.223.303 1.055.543 1.714.679 2.393 2.529 12.539 5.935 24.795 12.33 35.986 1.755 3.062.878 4.618-1.546 6.666-8.349 7.095-15.391 15.37-20.919 24.848-4.305 7.377-7.252 15.255-7.22 23.897.031 9.613 7.387 15.276 16.76 13.019 9.77-2.341 18.829-6.322 26.958-12.267 17.711-12.967 22.904-26.645 17.356-45.735-2.173-7.513-2.132-7.387 5.402-9.665 16.478-4.974 33.196-5.183 49.998-2.445 1.902.313 3.783.669 5.642 1.076a245.533 245.533 0 002.299-18.119c-21.494-5.254-42.957-2.527-64.168 5.529zM98.586 419.401c-4.775 1.693-9.738 2.414-14.817 2.017-6.322-.502-10.334-4.963-10.742-11.672-.46-7.732 1.829-14.712 5.214-21.504 6.154-12.33 16.488-20.699 27.032-28.912 10.25-7.993 21.264-14.817 32.402-21.452 3.375-2.006 3.427-1.985 4.2 2.038 1.003 5.162 1.902 10.334 1.567 15.026.879 28.138-19.559 55.504-44.856 64.459zm153.37-141.887c-1.776 11.86-5.653 23.155-9.78 34.314-5.622 15.235-11.097 30.542-18.171 45.192-1.62 3.375-3.323 6.729-5.945 9.477-2.476 2.602-4.671 2.299-6.384-.878-3.344-6.207-2.926-13.113-3.469-18.129.157-25.161 8.6-45.725 22.507-64.209 3.887-5.151 8.85-9.341 15.423-11.024 4.461-1.137 6.519.66 5.819 5.257zm97.385 74.491c-4.765 8.234-11.63 14.221-20.052 18.484-.899.449-2.058 1.243-2.873.188-.773-.993.47-1.651 1.034-2.278 8.37-9.143 16.635-18.359 24.085-28.275.115-.157.397-.178 1.034-.449-.073 4.588-1.076 8.621-3.228 12.33zm57.793-.355c-1.243.585-2.685 1.682-3.897.742-1.337-1.034-.805-2.863-.397-4.263 1.902-6.384 4.462-12.497 7.993-18.192 2.967-4.796 6.646-8.986 10.689-12.894 1.63-1.567 2.361-1.379 2.915.878.575 2.309.627 4.618.669 6.969-.104 12.863-6.635 21.421-17.972 26.76z"/>
    </symbol>
    <symbol id="icon-github" viewBox="0 0 512 512">
      <desc>Github Icon</desc>
      <path d='M255.968 5.329C114.624 5.329 0 120.401 0 262.353c0 113.536 73.344 209.856 175.104 243.872 12.8 2.368 17.472-5.568 17.472-12.384 0-6.112-.224-22.272-.352-43.712-71.2 15.52-86.24-34.464-86.24-34.464-11.616-29.696-28.416-37.6-28.416-37.6-23.264-15.936 1.728-15.616 1.728-15.616 25.696 1.824 39.2 26.496 39.2 26.496 22.848 39.264 59.936 27.936 74.528 21.344 2.304-16.608 8.928-27.936 16.256-34.368-56.832-6.496-116.608-28.544-116.608-127.008 0-28.064 9.984-51.008 26.368-68.992-2.656-6.496-11.424-32.64 2.496-68 0 0 21.504-6.912 70.4 26.336 20.416-5.696 42.304-8.544 64.096-8.64 21.728.128 43.648 2.944 64.096 8.672 48.864-33.248 70.336-26.336 70.336-26.336 13.952 35.392 5.184 61.504 2.56 68 16.416 17.984 26.304 40.928 26.304 68.992 0 98.72-59.84 120.448-116.864 126.816 9.184 7.936 17.376 23.616 17.376 47.584 0 34.368-.32 62.08-.32 70.496 0 6.88 4.608 14.88 17.6 12.352C438.72 472.145 512 375.857 512 262.353 512 120.401 397.376 5.329 255.968 5.329z'/>
    </symbol>
    <symbol id="icon-email" viewBox="0 0 184 184" >>
      <desc>Email Icon</desc>
      <path d="M160.746 24.61H23.254C10.432 24.61 0 35.042 0 47.864v88.271c0 12.822 10.432 23.254 23.254 23.254h137.492c12.822 0 23.254-10.432 23.254-23.254V47.864c0-12.822-10.432-23.254-23.254-23.254zm-3.633 15L92 89.909 26.887 39.61h130.226zm3.633 104.78H23.254c-4.551 0-8.254-3.703-8.254-8.254V49.382l72.415 55.94c1.35 1.043 2.968 1.564 4.585 1.564s3.235-.521 4.585-1.564L169 49.382v86.753c0 4.552-3.703 8.255-8.254 8.255z"/>
    </symbol>
  </defs>
</svg>
