<svg xmlns="http://www.w3.org/2000/svg" style="display: none;" role="img">
  <defs>
    <!-- EDUCATION ICONS -->
    <symbol id="icon-html" viewBox="0 0 434.147 434.147">
      <desc>Html Icon</desc>
      <path fill="var(--var-xray)" d="M27.336 14.372l28.177 360.474a13.333 13.333 0 009.263 11.67l148.268 47.008c2.622.831 5.437.831 8.059 0l148.268-47.008a13.333 13.333 0 009.263-11.67l28.177-360.474C407.417 6.622 401.292 0 393.519 0H40.629c-7.773 0-13.898 6.622-13.293 14.372zm307.217 111.843H150.918l5.542 51.105h174.099L319.17 323.013l-102.096 32.369-102.096-32.369-5.95-76.116h53.588v37.336l55.89 15 55.556-15 4.31-59.503H107.295L95.937 79.419H338.21l-3.657 46.796z"/>
    </symbol>
    <symbol id="icon-css" viewBox="0 0 512 512">
      <desc>Css Icon</desc>
      <path fill="var(--var-xray)" d="M32 0l40.8 460.8L256 512l183.136-51.168L480 0H32zm360.768 150.688l-5.152 57.888-15.52 173.568L256 414.208l-.064.032-116-32.128-8.128-90.752h56.832l4.224 47.104 63.072 17.024.064-.064 63.136-17.024 8.608-78.432-198.656.544-5.632-53.664 209.056-2.432 4.224-57.44-218.88.608-3.68-53.376h283.648l-5.056 56.48z"/>
    </symbol>
    <symbol id="icon-pug" viewBox="0 0 512.071 512.071">
      <desc>Pug Icon</desc>
      <path fill="var(--var-xray)" d="M148.044 200.096c-15.537 0-28.016 12.586-28.016 28 0 15.464 12.536 28 28 28 15.537 0 28.016-12.586 28.016-28 0-15.463-12.536-28-28-28zM364.028 256.096c15.537 0 28.016-12.586 28.016-28 0-15.464-12.536-28-28-28-15.537 0-28.016 12.586-28.016 28 0 15.464 12.536 28 28 28z"/>
      <path fill="var(--var-xray)" d="M510.813 217.942c-12.772-30.677-47.446-104.073-79.617-120.158-22.16-11.074-52.201-9.966-76.647-5.98-44.015-15.904-153.715-15.65-197.027 0-24.454-3.987-54.491-5.091-76.647 5.98-32.047 16.024-66.972 89.788-79.617 120.158-2.853 6.848-.845 15.092 5.894 19.467.09.063 16.875 11.967 16.875 26.687 0 23.904 18.314 57.697 47.666 63.207 10.621 26.889 29.497 34.88 33.156 45.853 3.459 10.377 14.42 26.147 69.437 43.222 52.912 16.421 83.726 15.719 81.75 15.719 22.53 0 59.428-8.791 81.75-15.719 55.017-17.074 65.978-32.845 69.437-43.222 3.658-10.972 22.533-18.96 33.156-45.853 29.351-5.509 47.666-39.303 47.666-63.207 0-14.721 16.785-26.624 16.875-26.687 6.757-4.387 8.736-12.643 5.893-19.467zM56.044 264.096c0-20.026-11.552-35.439-20.59-44.434 9.396-20.831 39.393-83.08 59.743-93.254 6.498-3.247 15.605-5.038 26.522-5.351-29.359 39.775-59.137 110.285-57.605 164.539-4.934-6.901-8.07-15.694-8.07-21.5zm214.566-22.133c-7.34 8.123-21.779 8.155-29.147 0 7.455-2.497 21.683-2.5 29.147 0zm-83.332 144.915c-15.076-30.836-28.096-75.291-15.92-87.468 16.846-16.844 28.89-32.597 43.54-39.525 6.085 8.383 15.25 14.553 25.13 17.706v20.563c-19.419 5.135-35.84 20.202-45.337 36.981a15.897 15.897 0 00-2.774 8.974c0 16.788 22.802 22.252 30.325 7.094.122.061.109.025.05.14l.052-.097c.109.056 11.88-23.144 33.692-23.15 21.472.006 33.607 23.014 33.727 23.247l-.046-.092.01-.005.052.097c-.059-.116-.072-.079.05-.14 7.522 15.157 30.325 9.696 30.325-7.094 0-3.331-1.032-6.413-2.774-8.974-9.582-16.929-25.99-31.865-45.337-36.981v-20.563c9.875-3.152 19.042-9.32 25.13-17.706 14.647 6.927 26.688 22.674 43.541 39.525 12.176 12.177-.844 56.631-15.92 87.468-28.98 8.676-56.476 13.217-68.758 13.219-12.282-.003-39.778-4.543-68.758-13.219zm260.681-101.282c1.545-54.699-28.696-125.374-57.604-164.538 10.917.313 20.024 2.104 26.522 5.351 20.35 10.174 50.347 72.423 59.743 93.254-9.038 8.994-20.59 24.407-20.59 44.434-.002 5.805-3.137 14.598-8.071 21.499zM345.355 122.507a16.05 16.05 0 002.405 1.035c19.774 9.29 68.269 95.318 68.269 156.555 0 58.498-28.256 50.981-39.063 82.597-.905 1.4-4.076 4.226-10.771 7.94 10.832-30.231 19.867-71.146-2.836-93.85-19.422-19.425-35.915-41.769-62.608-49.73-11.776-21.592-48.09-18.956-44.714-18.956-16.925 0-36.571 4.025-44.714 18.956-26.687 7.96-43.186 30.306-62.608 49.73-22.701 22.701-13.672 63.61-2.836 93.85-6.696-3.714-9.866-6.54-10.772-7.94-10.795-31.583-39.063-24.137-39.063-82.597 0-61.64 48.738-147.379 68.268-156.555.833-.275 1.633-.63 2.405-1.035 35.401-14.047 143.674-13.874 178.638 0z"/>
    </symbol>
    <symbol id="icon-sass" viewBox="0 0 547.827 547.827">>
      <desc>Sass Icon</desc>
      <path fill="var(--var-xray)" d="M273.915-.001c151.278 0 273.913 122.636 273.913 273.914 0 151.279-122.635 273.914-273.913 273.914C122.636 547.827 0 425.192 0 273.913 0 122.635 122.636 0 273.915 0"/>
      <path fill="var(--var-light)" d="M219.479 365.155c3.985 14.741 3.548 28.488-.568 40.937a67.462 67.462 0 01-3.282 8.104c-3.174 6.587-7.434 12.752-12.652 18.443-15.914 17.362-38.15 23.928-47.685 18.396-10.296-5.968-5.139-30.448 13.313-49.952 19.851-20.986 48.412-34.478 48.412-34.478l-.044-.085c.823-.443 1.659-.899 2.506-1.365zm226.253-247.918C433.328 68.59 352.664 52.597 276.32 79.72c-45.433 16.14-94.619 41.473-129.984 74.553-42.05 39.331-48.755 73.563-45.99 87.867 9.748 50.472 78.905 83.463 107.334 107.94v.148c-8.383 4.127-69.739 35.177-84.097 66.922-15.15 33.489 2.411 57.52 14.038 60.755 36.026 10.023 72.994-8.005 92.86-37.638 19.172-28.598 17.576-65.526 9.244-83.895 11.494-3.032 24.892-4.39 41.92-2.401 48.05 5.612 57.478 35.614 55.675 48.168-1.801 12.557-11.88 19.461-15.25 21.545-3.37 2.085-4.398 2.807-4.114 4.356.408 2.253 1.968 2.17 4.841 1.683 3.955-.667 25.231-10.214 26.14-33.391 1.159-29.427-27.041-62.344-76.973-61.484-20.564.355-33.495 2.31-42.835 5.787a95.823 95.823 0 00-2.12-2.344c-30.869-32.935-87.934-56.232-85.514-100.508.88-16.096 6.474-58.482 109.652-109.895 84.52-42.115 152.181-30.525 163.874-4.84 16.703 36.695-36.161 104.897-123.936 114.735-33.441 3.749-51.049-9.212-55.429-14.039-4.612-5.081-5.299-5.31-7.02-4.357-2.805 1.553-1.028 6.04 0 8.714 2.62 6.82 13.375 18.915 31.71 24.931 16.127 5.293 55.391 8.201 102.875-10.165 53.18-20.572 94.708-77.796 82.511-125.63"/>
    </symbol>
    <symbol id="icon-js" viewBox="0 0 256 256">
      <desc>JavaScript Icon</desc>
      <path fill="var(--var-xray)" d="M0 0h256v256H0V0z"/>
      <path fill="var(--var-light)" d="M67.312 213.932l19.59-11.856c3.78 6.701 7.218 12.371 15.465 12.371 7.905 0 12.89-3.092 12.89-15.12v-81.798h24.057v82.138c0 24.917-14.606 36.259-35.916 36.259-19.245 0-30.416-9.967-36.087-21.996m85.07-2.576l19.588-11.341c5.157 8.421 11.859 14.607 23.715 14.607 9.969 0 16.325-4.984 16.325-11.858 0-8.248-6.53-11.17-17.528-15.98l-6.013-2.58c-17.357-7.387-28.87-16.667-28.87-36.257 0-18.044 13.747-31.792 35.228-31.792 15.294 0 26.292 5.328 34.196 19.247l-18.732 12.03c-4.125-7.389-8.591-10.31-15.465-10.31-7.046 0-11.514 4.468-11.514 10.31 0 7.217 4.468 10.14 14.778 14.608l6.014 2.577c20.45 8.765 31.963 17.7 31.963 37.804 0 21.654-17.012 33.51-39.867 33.51-22.339 0-36.774-10.654-43.819-24.574"/>
    </symbol>
    <symbol id="icon-jquery" viewBox="0 0 100 94">
      <desc>JQuery Icon</desc>
      <svg xmlns="http://www.w3.org/2000/svg" viewBox="0 0 100 94"><defs/><path fill="var(--var-xray)" d="M25.62 17.37c-4.994 7.309-4.372 16.816-.568 24.573l.28.553.189.35c.035.067.075.135.111.2.067.124.133.242.19.363l.363.636.208.35.423.672.189.284c.189.302.402.603.612.9l.017.023c.033.047.07.095.095.142.181.255.378.507.567.756l.21.272.515.645.196.24a29.912 29.912 0 00.718.835l.015.015c.01.013.02.02.029.032a22.427 22.427 0 00.73.784l.234.24.583.582.238.23a32.596 32.596 0 00.799.74l.15.133.726.624.3.244.605.472.323.25.925.677c.023.016.044.033.068.049.217.15.437.297.659.444l.285.194 1.032.642.285.164.775.442c.142.078.287.151.429.225l.553.284.128.062.227.111.879.414.186.095a31.122 31.122 0 001.024.434l.25.1.967.365.12.043a32.72 32.72 0 001.078.36l.26.079c.378.113.732.248 1.112.321C70.055 63.51 77.07 44.247 77.07 44.247c-5.89 7.816-16.346 9.876-26.253 7.582-.375-.094-.739-.205-1.106-.315l-.276-.095c-.357-.111-.712-.23-1.064-.352l-.146-.054a33.097 33.097 0 01-.939-.354l-.264-.106a29.837 29.837 0 01-1.013-.43l-.203-.09-.854-.407-.246-.12a29.203 29.203 0 01-.661-.344l-.442-.236a25.414 25.414 0 01-.792-.453l-.267-.15a40.996 40.996 0 01-1.032-.643c-.095-.062-.185-.127-.279-.19l-.734-.497-.237-.17-.694-.51-.308-.236-.627-.5-.28-.226-.78-.662a.872.872 0 00-.094-.072 36.798 36.798 0 01-.82-.76l-.23-.227-.59-.588-.231-.236a29.61 29.61 0 01-.723-.779l-.036-.038a29.761 29.761 0 01-.733-.85l-.192-.233-.53-.664-.193-.246-.61-.827c-5.5-7.641-7.466-18.179-3.08-26.834m11.608-1.123c-3.61 5.293-3.415 12.375-.599 17.972a23.504 23.504 0 001.598 2.715c.54.79 1.14 1.73 1.859 2.363.26.284.532.567.81.856.07.073.141.142.213.215a23.826 23.826 0 00.828.783c.011.01.022.021.034.03a24.865 24.865 0 00.974.823l.22.174a23.75 23.75 0 001.011.752.567.567 0 00.028.022c.152.107.308.208.462.31.073.049.143.1.217.147a20.461 20.461 0 00.75.468l.105.062.662.378c.077.045.157.084.236.125l.473.244c.023.012.047.022.07.033.318.16.638.312.966.458.07.032.142.06.214.09.262.114.526.223.794.328l.34.127a24.884 24.884 0 00.728.258l.329.107c.347.11.69.248 1.052.31 18.642 3.145 22.946-11.474 22.946-11.474-3.88 5.69-11.392 8.406-19.41 6.287a19.932 19.932 0 01-1.056-.312c-.106-.033-.211-.068-.317-.094a21.132 21.132 0 01-.738-.26l-.334-.126c-.267-.095-.532-.213-.794-.326-.072-.031-.143-.06-.214-.093a18.458 18.458 0 01-.974-.46c-.164-.082-.326-.168-.487-.253l-.282-.148a18.95 18.95 0 01-.617-.354l-.148-.095a24.062 24.062 0 01-.746-.465c-.076-.049-.15-.094-.225-.153l-.484-.326a25.952 25.952 0 01-1.007-.75l-.227-.182c-3.51-2.822-6.292-6.678-7.614-11.05-1.386-4.537-1.087-9.626 1.323-13.757m10.064-.36c-2.129 3.191-2.338 7.153-.851 10.676 1.557 3.74 4.749 6.674 8.474 8.065.153.058.307.11.472.163l.204.066c.22.07.438.152.664.195 10.294 2.025 13.086-5.38 13.828-6.47-2.446 3.588-6.556 4.449-11.599 3.202a14.39 14.39 0 01-1.228-.384 14.762 14.762 0 01-1.45-.613 14.942 14.942 0 01-2.54-1.58C55.604 16.445 52.8 9.794 55.745 4.376"/><g fill="var(--var-xray)"><path d="M31.418 74.34l-.697 2.473.697-2.471zm3.588 5.367l-.769-.005.769.005zm-.19 3.691l-4.604.017 4.605-.017zm.965-3.685l-.77-.005.77.005zm-.55 3.372l.803-3.06-.803 3.06zm16.945-14.089l-1.493 7.025 1.493-7.025zm-3.842 0L47.2 74.244l1.134-5.248z"/><path d="M51.912 68.68h-3.195a.42.42 0 00-.391.315l-2.268 10.497a.42.42 0 01-.39.315h-2.262c-2.238 0-1.98-1.547-1.512-3.667l.014-.064.271-1.446.117-.596 1.032-5.039a.254.254 0 00-.258-.316h-3.28a.416.416 0 00-.389.315l-1.477 7.007c-.813 3.709-.597 7.245 3.818 7.356l.128.003h6.93a.418.418 0 00.39-.316l2.988-14.05c.038-.174-.078-.315-.255-.315zm12.746 11.164c.178 0 .284.142.258.316l-.31 1.516m-.31 1.518l.31-1.518-.31 1.518zm-.39.32l-5.887.028 5.888-.028z"/><path d="M56.112 77.891c-.003-.166.186-.451.363-.451l-.398-.007c-.19 1.809.035.458.035.458zm2.198 5.65h-.062.062zm6.348-3.697c.178 0 .284.142.258.316l-.36 1.763m-4.734 1.623h-.013.013zm-.784-.006h-.046.046zm-.24.001h-.075.076zm-.233 0H58.5h.066zm.437 0h-.194.194zM59.81 83.546l-.771.003.77-.003zm4.099-.024l-4.088.025 4.088-.025zm.378-.328l.26-1.27-.26 1.271zm-5.573.347h-.149.168zm-.467 0h-.227.227zm.242 0H58.3h.19zM11.745 77.93l.496-2.2-.567 2.514-.066.316.138-.632zm5.941-9.285h-3.51a.425.425 0 00-.393.314l-.666 2.93a.246.246 0 00.252.315h3.536a.42.42 0 00.392-.315l.642-2.936c.038-.173-.075-.315-.255-.315zm-.764 4.884l-1.04 4.761 1.04-4.761zM6.73 89.306l2.893.023c-.854 0-2.265-.016-2.894-.024z"/><path d="M12.728 73.528l-.497 2.2.497-2.2zm3.941-.315h-3.537a.425.425 0 00-.395.315l-.992 4.4-.138.632-.945 4.492a6.767 6.767 0 01-.17.62s-.662 1.966-1.771 1.945l-1.101-.021a.425.425 0 00-.397.308l-.733 3.084a.246.246 0 00.247.317l2.895.024c2.775 0 4.237-1.538 5.175-5.96l2.127-9.83c.038-.173-.078-.314-.255-.314zm50.243 10.149c-.178 0-.283-.142-.255-.316l2.66-12.462m1.292 12.461l1.078-5.319-1.078 5.319z"/><path d="M66.696 83.204c-.022-.087-.01-.3.028-.473l1.263-5.916-1.33 6.23c-.039.175.077.317.254.317h.323c-.177 0-.517-.071-.538-.158zm3.705.087a1.72 1.72 0 01-.5.07h.324a.416.416 0 00.387-.316l.064-.316c-.034.174-.189.523-.283.562zm.746-2.906l.476-2.347-.476 2.347zm10.498-8.967l.147.605c.04.173-.072.314-.249.315M70.674 82.73l.472-2.345-.472 2.344zM81.5 70.786l.144.62-.144-.62zm-9.878 7.25l.13-.627.507-2.377-.574 2.692-.063.312zM69.36 70.38l-.11.52-1.263 5.916 1.33-6.231.043-.204z"/><path d="M81.793 72.023l-.147-.605-.217-.945c-.287-1.115-1.13-1.76-2.962-1.76l-8.43-.006a.416.416 0 00-.39.316l-.13.617-.19.933-2.593 12.147c-.037.174-.05.378-.028.472s.362.158.539.158h2.665c.178 0 .402-.032.499-.07s.24-.379.284-.562l1.01-5.003 1.083-5.07a.42.42 0 01.39-.315l8.385-.003c.177 0 .29-.142.249-.315zm10.795-5.475l-.645.003h-2.684a.69.69 0 00-.505.267l-5.935 8.695c-.1.146-.214.124-.255-.048l-.437-1.915a.425.425 0 00-.394-.315h-3.815c-.178 0-.284.139-.235.31l1.702 5.99c.049.17.052.45.009.624l-.756 2.898a.236.236 0 00.243.313h3.78a.44.44 0 00.403-.312l.756-2.898a1.928 1.928 0 01.274-.571l9.646-12.79c.106-.142.049-.257-.129-.255l-1.011.006zM62.274 74.05a.39.39 0 01-.378.33h-4.84c-.167 0-.252-.113-.226-.255l.004-.025.021-.083c.473-1.228 1.404-2.034 3.172-2.034 1.991 0 2.38.973 2.245 2.067zm-1.42-5.584c-6.21 0-7.68 3.769-8.506 7.573-.826 3.878-.754 7.504 5.67 7.504h1.02l.784-.003 4.089-.024a.416.416 0 00.384-.317l.621-3.036c.036-.173-.08-.315-.258-.315h-5.776c-2.297 0-2.98-.61-2.729-2.406h9.234a.37.37 0 00.342-.238.39.39 0 00.023-.08c1.37-5.17.977-8.654-4.896-8.654zm-29.349 5.563l-.087.309-.697 2.472-.698 2.47a.454.454 0 01-.41.31h-3.691c-2.8 0-3.481-2.19-2.8-5.418.68-3.304 2.018-5.357 4.773-5.565 3.765-.284 4.517 2.364 3.61 5.42zm2.531 5.373s1.74-4.225 2.136-6.666c.539-3.267-1.096-8.005-7.414-8.005-6.282 0-9.01 4.523-10.05 9.45-1.04 4.953.323 9.297 6.568 9.263l9.532-.035a.444.444 0 00.404-.314l.803-3.06a.236.236 0 00-.24-.314l-1.539-.01c-.15 0-.236-.098-.219-.226a.351.351 0 01.02-.072z"/><path d="M65.134 76.575a.211.211 0 11-.423 0 .211.211 0 01.423 0z"/></g></svg>
    </symbol>
    <symbol id="icon-jekyll" viewBox="0 0 120 60">
      <desc>Jekyll Icon</desc>
      <svg xmlns="http://www.w3.org/2000/svg" xmlns:xlink="http://www.w3.org/1999/xlink" viewBox="0 0 120 60"><defs/><defs><linearGradient id="a" x1="741.814" x2="825.18" y1="228.135" y2="260.193" gradientUnits="userSpaceOnUse"><stop offset="0" stop-color="#919191"/><stop offset="1" stop-color="#fff"/></linearGradient><linearGradient id="b" x1="739.684" x2="790.154" y1="281.807" y2="301.215" gradientUnits="userSpaceOnUse"><stop offset="0" stop-color="#900"/><stop offset="1" stop-color="#e80000"/></linearGradient><linearGradient id="d" x1="411.259" x2="411.259" y1="399.636" y2="134.164" gradientUnits="userSpaceOnUse"><stop offset="0" stop-color="#919191"/><stop offset="1" stop-color="#fff"/></linearGradient><path id="c" d="M250.558 228.54c4.415 3.53 12.36 1.47 17.66-4.41 5.592-6.175 6.475-14.115 2.06-17.644s-12.362-1.47-17.66 4.705c-5.593 6.176-6.475 13.822-2.06 17.35zm-12.95 11.47c-1.177 0-3.237 2.06-1.472 2.94 2.354.882 3.532 2.94 3.532 5.882-2.06 12.056-17.07 25.877-22.957 30.582-1.472 1.47.59 4.705 2.06 3.528 3.238-2.646 10.007-7.94 15.6-14.997-9.124 20.3-26.784 46.462-33.553 55.577-26.488 36.758-66.81 70.574-94.477 70.574-22.074 0-40.91-14.996-45.03-37.05-.294-2.354-3.532-2.94-2.943.294 5.003 30.288 28.255 42.05 56.5 42.05 30.904 0 67.178-22.392 87.126-45.306 32.28-37.078 53.265-79.67 47.673-103.782-2.355-9.115-8.535-10.585-12.068-10.29zm198.58 80.63c8.535-2.06 15.6-6.835 15.6-14.222 0-.74-1.472-.74-1.472 0 0 4.432-5.003 8.046-10.595 8.928-13.245 2.06-39.44-13.473-51.8-29.353 13.245 5 40.322-2.326 52.978-11.44 11.773-8.528 16.482-17.925 17.365-25.57 1.47-12.645-12.362-19.99-31.493-12.638-12.36 5-27.077 15.883-42.382 36.173 16.188-26.76 47.974-70.28 79.172-98.215 37.967-33.817 60.042-27.347 25.9 8.53-14.128 14.703-40.617 33.817-58.865 42.05-5.592 2.353-2.943 5.587 1.177 3.822 19.426-8.527 45.326-26.17 60.925-40.874 46.208-44.403 7.652-77.926-43.56-30.876-34.73 32.053-57.393 65.575-77.112 109.097-6.77 8.233-11.773 14.997-17.954 20.3-.73.643-1.313 1.27-1.794 1.87-16.997 14.566-43.677 34.228-60.258 34.465-11.773.294-16.776-8.528-14.716-19.996 3.237-17.938 21.78-39.1 37.673-46.462 20.603-9.4 32.67 8.82 5.592 23.524-10.3 5.294-22.663 8.234-27.666 8.234-5.886 0-5.298 2.353-.294 2.646 8.24.294 21.486-3.235 30.315-7.353 27.666-13.232 29.432-37.934-.59-38.815-32.67-1.176-71.814 26.76-71.52 61.753.294 15.88 12.95 24.407 30.315 24.407 28.878-.263 54.708-22.28 75.826-41.644 3.032-2.522 5.96-5.293 8.888-8.218-7.358 18.82-11.184 36.17-9.418 49.108 1.178 9.4 6.476 13.82 10.596 17.35.883.588 2.65 0 1.47-1.764-6.18-7.352-4.415-29.166 4.12-50.338 7.065 14.117 34.732 32 63.575 25.533zm-34.73-61.353c33.847-30.288 47.09-3.234 25.606 13.232-11.184 8.528-33.258 14.997-40.322 10.88l-1.472-.882c-.883-1.47-1.766-2.94-2.354-4.4 5.59-6.763 12.066-12.94 18.542-18.82zm187.854-34.32c13.538 1.47 7.946-14.998-5.887-10.88-6.18 1.764-12.067 13.527-16.482 23.82-13.538 20.3-36.2 47.932-52.095 62.34-14.127 12.057-27.077 15.29-11.184-7.352 6.475-9.116 14.716-18.82 19.425-28.523 11.184-24.407-12.656-35.287-31.787-20.584-11.184 8.527-26.194 26.17-37.967 35.875-3.238 2.646-2.355 6.47.883 3.822 9.418-7.646 25.9-24.995 40.027-35.287 11.773-9.116 16.482-3.234 9.713 4.41-9.418 10.88-25.9 29.7-30.02 41.757-5.887 17.938 1.177 25.877 12.95 25.877 16.188 0 40.322-25.29 56.5-45.285 5.298-6.764 11.185-14.703 16.188-22.35-14.128 27.348-28.844 54.99-47.092 79.984-25.9 35.287-58.275 61.752-88.885 61.752-22.074 0-41.205-14.996-45.325-37.05-.295-2.353-3.238-2.94-2.944.294 5.003 30.288 28.255 42.05 56.5 42.05 30.904 0 60.63-17.938 81.527-39.99 42.088-44.403 47.092-94.394 60.042-122.33 5.887-12.35 11.48-12.94 15.895-12.35zM760.4 182.15c6.18-10.586 5.886-18.82-8.535-18.82-10.9.294-30.61 7.94-39.733 14.997-2.06 2.06-1.178 3.235 1.472 2.06 1.766-.588 3.826-1.764 5.886-2.646 10.302-5.587 6.182 6.175 3.826 10.586-12.36 21.466-34.142 51.755-45.62 66.752-5.5 7.383-11.7 14.758-17.667 21.03-11.053 10.485-32.883 29.062-49.4 35.313-53.567 19.996 14.716-71.163 20.308-78.515 12.656-15.88 40.91-43.52 49.446-57.342 6.18-10.586 5.886-18.82-8.535-18.82-10.9.294-30.61 7.94-39.733 14.997-2.06 2.06-1.178 3.234 1.472 2.06 1.766-.588 3.826-1.765 5.887-2.646 10.3-5.587 6.18 6.175 3.825 10.586-12.36 21.466-34.142 51.754-45.62 66.75-9.418 12.645-20.897 25.29-29.728 32.347-3.53 2.94-1.47 5.588 2.062 3.235 3.237-2.06 7.946-6.764 13.244-12.352-9.713 19.408-17.66 46.756 7.946 49.99 21.82 2.982 47.764-19.286 64.54-35.778 1.85-1.75 3.877-3.806 6.02-6.042l1.472-1.508c-9.695 19.404-17.587 46.684 7.985 49.914 27.96 3.822 62.7-33.817 76.23-47.638 2.648-2.646 1.766-7.058-2.65-2.646-7.946 8.233-34.73 32.64-54.154 39.992-53.567 19.995 14.716-71.163 20.308-78.515 12.653-15.878 40.908-43.52 49.443-57.34z"/></defs><g transform="matrix(.12965 0 0 .12965 -2.162 -3.014)"><path d="M802.41 80.363c-.15.607-.155 1.26-.027 1.948 0 0 2.065 13.708-.28 19.81l-99.667 259.174c-7.113 19.036 2.42 40.29 21.43 47.6s40.325-2.08 47.8-20.976l.01.004 99.675-259.172c1.95-5.07 13.064-14.892 13.064-14.892.558-.425 1-.913 1.285-1.464l.05-.1c.054-.108.116-.212.16-.325 2.57-6.683-14.008-19.28-37.028-28.132s-43.767-10.613-46.337-3.93c-.044.113-.068.23-.1.348l-.032.108z" opacity=".3"/><path fill="url(#a)" d="M799.53 78.16c-.152.607-.156 1.26-.027 1.948 0 0 2.065 13.708-.28 19.81L699.557 359.09c-7.113 19.036 2.42 40.29 21.43 47.6s40.325-2.08 47.8-20.976l.01.004 99.675-259.172c1.948-5.07 13.064-14.892 13.064-14.892.558-.425 1-.912 1.285-1.464l.048-.1c.054-.108.116-.212.16-.325 2.57-6.683-14.008-19.28-37.027-28.132s-43.767-10.613-46.337-3.93c-.044.113-.068.23-.1.348l-.032.108z"/><path fill="#DE0700" d="M830.797 195.407l-71.833 186.918c-5.302 13.396-20.73 20.365-34.416 15.102s-21.094-21.015-16.053-34.512l45.93-119.426s5.736-9.253 17-15.836 20.55-5.193 33.058-10.752 26.315-21.494 26.315-21.494z"/><ellipse cx="841.085" cy="94.407" fill="#333" rx="27.717" ry="7.29" transform="rotate(21.038 841.007 94.393)"/><g fill="#fff"><path d="M799.503 80.107s2.035 13.787-.28 19.81L699.557 359.1c-7.113 19.036 2.42 40.29 21.43 47.6a37.096 37.096 0 0010.02 2.324c-12.813-9.64-18.312-26.88-12.433-42.61l-.01-.003 97.697-254.03c0 .001-13.3-12.486-16.758-32.263z" opacity=".3"/><circle cx="767.412" cy="247.294" r="2.888" opacity=".5"/><circle cx="786.344" cy="268.235" r="4.354" opacity=".5"/><circle cx="757.443" cy="293.138" r="8.167" opacity=".5"/><circle cx="744.219" cy="308.241" r="4.354" opacity=".5"/><circle cx="761.563" cy="340.542" r="2.888" opacity=".5"/></g><path d="M253.384 231.366c4.415 3.528 12.36 1.47 17.66-4.41 5.592-6.175 6.475-14.115 2.06-17.644s-12.362-1.47-17.66 4.705c-5.592 6.175-6.475 13.82-2.06 17.35zm-12.95 11.47c-1.177 0-3.237 2.058-1.472 2.94 2.354.882 3.532 2.94 3.532 5.88-2.06 12.057-17.07 25.877-22.957 30.582-1.472 1.47.59 4.705 2.06 3.53 3.238-2.646 10.007-7.94 15.6-14.998-9.124 20.29-26.784 46.462-33.553 55.578-26.488 36.757-66.81 70.574-94.477 70.574-22.074 0-40.91-14.997-45.03-37.052-.294-2.353-3.532-2.94-2.943.294 5.003 30.29 28.255 42.05 56.5 42.05 30.904 0 67.178-22.392 87.126-45.306 32.28-37.078 53.265-79.67 47.673-103.782-2.355-9.115-8.536-10.586-12.068-10.29zm198.58 80.63c8.535-2.06 15.6-6.835 15.6-14.222 0-.738-1.472-.738-1.472 0 0 4.433-5.003 8.047-10.595 8.93-13.245 2.06-39.44-13.474-51.8-29.354 13.245 5 40.322-2.325 52.978-11.44 11.773-8.527 16.482-17.924 17.365-25.57 1.47-12.646-12.362-19.99-31.493-12.638-12.36 5-27.077 15.882-42.382 36.172 16.188-26.76 47.974-70.28 79.172-98.214 37.967-33.817 60.042-27.347 25.9 8.53-14.127 14.703-40.616 33.817-58.864 42.05-5.592 2.353-2.943 5.587 1.177 3.823 19.425-8.528 45.326-26.17 60.924-40.875 46.21-44.403 7.652-77.926-43.56-30.876-34.73 32.053-57.393 65.575-77.112 109.096-6.77 8.233-11.773 14.997-17.954 20.3a15.12 15.12 0 00-1.794 1.87c-16.997 14.565-43.678 34.228-60.258 34.464-11.773.294-16.776-8.527-14.716-19.996 3.237-17.938 21.78-39.1 37.673-46.46 20.603-9.4 32.67 8.82 5.592 23.524-10.302 5.293-22.663 8.233-27.667 8.233-5.887 0-5.298 2.353-.294 2.646 8.24.294 21.486-3.234 30.315-7.352 27.666-13.232 29.432-37.934-.59-38.815-32.67-1.177-71.814 26.76-71.52 61.752.294 15.88 12.95 24.407 30.315 24.407 28.878-.262 54.708-22.28 75.827-41.644 3.032-2.52 5.96-5.293 8.888-8.217-7.358 18.82-11.184 36.17-9.418 49.108 1.178 9.4 6.476 13.82 10.596 17.35.883.588 2.65 0 1.47-1.765-6.18-7.352-4.415-29.166 4.12-50.338 7.065 14.118 34.73 32.003 63.575 25.533zm-34.73-61.353c33.847-30.288 47.09-3.234 25.606 13.232-11.185 8.528-33.26 14.998-40.322 10.88l-1.472-.882c-.883-1.47-1.766-2.94-2.354-4.41 5.592-6.763 12.067-12.938 18.542-18.82zm187.854-34.32c13.54 1.47 7.946-14.997-5.886-10.88-6.18 1.764-12.067 13.526-16.482 23.82-13.54 20.3-36.202 47.932-52.095 62.34-14.128 12.056-27.078 15.29-11.185-7.353 6.475-9.115 14.716-18.82 19.426-28.523 11.184-24.407-12.656-35.287-31.787-20.584-11.184 8.527-26.194 26.17-37.967 35.875-3.238 2.646-2.355 6.47.883 3.823 9.417-7.646 25.9-24.995 40.027-35.287 11.772-9.116 16.482-3.235 9.712 4.4-9.418 10.88-25.9 29.7-30.02 41.757-5.887 17.938 1.177 25.877 12.95 25.877 16.188 0 40.322-25.29 56.5-45.285 5.298-6.763 11.185-14.703 16.188-22.35-14.127 27.348-28.844 54.99-47.09 79.984-25.9 35.288-58.275 61.753-88.885 61.753-22.074 0-41.205-14.997-45.326-37.05-.294-2.354-3.237-2.94-2.943.293 5.003 30.29 28.255 42.05 56.5 42.05 30.904 0 60.63-17.938 81.527-39.992 42.088-44.403 47.09-94.393 60.042-122.33 5.885-12.35 11.477-12.938 15.892-12.35zm171.1-42.815c6.18-10.586 5.887-18.82-8.534-18.82-10.89.294-30.6 7.94-39.734 14.997-2.06 2.06-1.178 3.235 1.472 2.06 1.766-.588 3.826-1.765 5.887-2.646 10.3-5.587 6.18 6.175 3.825 10.586-12.36 21.466-34.14 51.754-45.62 66.75-5.5 7.384-11.7 14.76-17.667 21.03-11.054 10.485-32.883 29.062-49.4 35.313-53.566 19.996 14.716-71.162 20.31-78.514 12.655-15.88 40.91-43.52 49.445-57.342 6.182-10.586 5.887-18.82-8.534-18.82-10.89.294-30.61 7.94-39.733 14.997-2.06 2.06-1.178 3.234 1.47 2.06 1.767-.588 3.826-1.765 5.887-2.646 10.3-5.587 6.18 6.175 3.826 10.586-12.36 21.466-34.142 51.755-45.62 66.752-9.418 12.645-20.896 25.29-29.727 32.347-3.53 2.94-1.4725.587 2.06 3.234 3.237-2.06 7.946-6.764 13.244-12.35-9.712 19.408-17.66 46.756 7.947 50 21.82 2.983 47.764-19.285 64.54-35.778 1.85-1.75 3.877-3.806 6.02-6.042l1.473-1.507c-9.695 19.403-17.587 46.684 7.984 49.914 27.96 3.822 62.69-33.817 76.23-47.64 2.65-2.646 1.766-7.057-2.648-2.646-7.947 8.234-34.73 32.64-54.155 39.993-53.566 19.995 14.716-71.163 20.308-78.515 12.653-15.88 40.908-43.52 49.443-57.34z" opacity=".3"/><use fill="#959CA6" xlink:href="#c"/><defs><filter id="e" width="705.929" height="265.471" x="58.294" y="134.165" color-interpolation-filters="sRGB" filterUnits="userSpaceOnUse"><feColorMatrix values="-1 0 0 0 1 0 -1 0 0 1 0 0 -1 0 1 0 0 0 1 0"/></filter></defs><g mask="url(#f)" opacity=".75"><use fill="#fff" xlink:href="#c"/></g><path fill="#fff" d="M661.764 281.9l-.412.427c-4.196 9.143-7.592 19.445-7.32 28.013.295-9.433 4.534-20.6 9.204-29.947l-1.472 1.507zm-80.432-6.154c-4.196 9.142-7.6 19.445-7.318 28.012.295-9.46 4.558-20.665 9.243-30.028l-1.925 2.016zm130.334-94.906l.466-.516c9.124-7.057 28.844-14.703 39.733-14.997 8.23 0 11.854 2.684 12.304 6.954.53-5.417-2.853-8.954-12.304-8.954-10.9.294-30.6 7.94-39.733 14.997-1.413 1.413-1.442 2.4-.466 2.516zm33.134 97.173c-7.946 8.233-34.73 32.64-54.154 39.992-14.205 5.303-19.84 2.787-20.35-3.907-.462 8.146 4.812 11.707 20.35 5.907 19.425-7.352 46.208-31.76 54.154-39.992 2.147-2.146 3.452-2.196 3.93-1.386.747-2.206-.558-3.982-3.93-.614zm-176.85 4.823c8.83-7.058 20.3-19.702 29.728-32.347 11.478-14.997 33.258-45.285 45.62-66.75 1.33-2.492 3.223-7.33 2.762-10.06-.325 2.695-1.716 6.1-2.762 8.06-12.36 21.466-34.142 51.754-45.62 66.75-9.418 12.645-20.897 25.3-29.728 32.347-1.883 1.568-2.166 3.045-1.493 3.732.3-.54.768-1.128 1.493-1.732zm63.698-108.58l.466-.515c9.124-7.058 28.844-14.703 39.733-14.997 8.23 0 11.854 2.684 12.305 6.954.53-5.417-2.854-8.954-12.305-8.954-10.9.294-30.6 7.94-39.733 14.997-1.413 1.4-1.44 2.407-.466 2.515zm91.667 16.068c1.33-2.492 3.223-7.33 2.762-10.06-.325 2.695-1.716 6.1-2.762 8.06-12.36 21.466-34.142 51.755-45.62 66.752-5.5 7.383-11.7 14.758-17.667 21.03-11.053 10.485-32.883 29.062-49.4 35.313-14.205 5.302-19.84 2.787-20.35-3.907-.462 8.146 4.812 11.707 20.35 5.907 16.517-6.252 38.347-24.828 49.4-35.313 5.968-6.27 12.168-13.646 17.667-21.03 11.48-14.997 33.26-45.285 45.62-66.752zm-208.468 109.92c-8.886 7.584-17.3 11.67-18.37 8.028-1.3 6.727 8.236 2.62 18.37-6.028 15.894-14.4 38.557-42.05 52.095-62.34 4.415-10.292 10.302-22.055 16.482-23.82 7.62-2.268 12.73 1.7 13.528 5.497.98-4.14-4.525-10.176-13.528-7.497-6.18 1.764-12.067 13.527-16.482 23.82-13.54 20.3-36.202 47.932-52.095 62.34zm-7.897-52.832c-.327 1.483-1.302 3.283-2.993 5.194-9.418 10.88-25.9 29.7-30.02 41.757-1.6 4.845-2.228 8.954-2.1 12.38.132-2.994.8-6.446 2.1-10.38 4.12-12.057 20.603-30.877 30.02-41.757 2.558-2.888 3.475-5.523 2.993-7.194zm-53.616 34.248c11.773-9.704 26.783-27.348 37.967-35.875 15.42-11.852 33.887-7.074 34.62 8.003.87-16.64-18.535-22.364-34.62-10.003-11.184 8.527-26.194 26.17-37.967 35.875-1.9 1.562-2.378 3.524-1.78 4.334.3-.76.872-1.592 1.78-2.334zm-77.876 76.562c.55-1.602 2.582-.866 2.824 1.07 4.12 22.055 23.25 37.05 45.325 37.05 30.6 0 62.985-26.465 88.885-61.752 18.248-24.995 32.964-52.637 47.092-79.984a257.08 257.08 0 01-4.414 6.504c-12.802 24.54-26.32 49.074-42.678 71.48-25.9 35.287-58.275 61.752-88.885 61.752-22.074 0-41.205-14.996-45.325-37.05-.295-2.353-3.238-2.94-2.944.294.037.216.082.42.12.636zm-54.9-78.482c-10.3 5.294-22.663 8.234-27.666 8.234-4.696 0-5.26 1.495-2.76 2.25.676-.152 1.583-.25 2.76-.25 5.003 0 17.365-2.94 27.666-8.234 11.9-6.466 16.244-13.614 15.613-18.794-.555 4.932-5.17 11.124-15.613 16.794zm44.066 4.213c-5.54 14.862-8.75 28.675-8.607 39.965.25-11.73 3.885-25.968 9.827-41.166l-1.22 1.2zm-87.74 24.56c-.4 9.535 4.716 16.42 15.136 16.16 16.58-.237 43.26-19.898 60.258-34.465.48-.6 1.064-1.227 1.794-1.87 6.18-5.293 11.184-12.057 17.954-20.3 19.72-43.52 42.382-77.044 77.112-109.097 34.5-31.688 63.238-26.826 64.218-6.708.864-21.762-28.612-28.003-64.218 4.708-34.73 32.053-57.393 65.575-77.112 109.097-6.77 8.233-11.773 14.997-17.954 20.3-.73.643-1.313 1.27-1.794 1.87-16.997 14.566-43.677 34.228-60.258 34.465-9.676.24-14.77-5.68-15.136-14.16zm153.7-83.633c-3.23 1.358-3.702 3.006-2.738 3.82.477-.6 1.353-1.237 2.738-1.82 18.248-8.234 44.737-27.348 58.865-42.05 12.647-13.3 17.574-22.54 16.842-27.207-.646 5.083-5.802 13.605-16.842 25.207-14.128 14.703-40.617 33.817-58.865 42.05zm-3.532 49.64c7.566-5.8 10.82-12.9 10.4-18.367-.397 5.12-3.717 11.254-10.4 16.367-11.184 8.528-33.258 14.997-40.322 10.88l-1.472-.882c-.623-1.036-1.24-2.073-1.76-3.1l-.595.7c.6 1.47 1.472 2.94 2.354 4.4l1.472.882c7.064 4.117 29.138-2.352 40.322-10.88zm23.26 31.48c0 5-5.003 8.255-10.595 9.137-12.496 1.942-36.513-11.67-49.57-26.562-.777-.197-1.527-.37-2.23-.634 12.362 15.88 38.556 31.438 51.8 29.38 5.592-.883 10.595-4.483 10.595-8.916 0-.603.97-.906 1.33-.524.083-.545.14-.88.14-1.88h-1.472zm-127.98-59.547c14.172.417 21.252 6.143 21.876 13.463.573-8.252-6.438-15-21.876-15.463-32.67-1.176-71.814 26.76-71.52 61.753.002.12.012.235.015.354.92-34.218 39.35-61.264 71.505-60.107zm104.435-10.1c-10.773 4.357-23.336 13.2-36.518 28.818l-5.864 9.354c15.305-20.3 30.02-31.174 42.382-36.173 17.67-6.8 30.812-1.038 31.557 9.844.808-12.152-12.832-19.04-31.557-11.843zm-61.94 95.33c-.115 6.95 1.04 12.514 3.552 15.626.5-.253.77-.87.112-1.853-2.343-2.787-3.54-7.654-3.664-13.773zm-128.826-88.818c.458-.5 1.1-.857 1.605-.857 3.532-.294 9.713 1.176 12.067 10.292.52 2.247.8 4.655.882 7.203.05-3.293-.227-6.38-.882-9.203-2.354-9.116-8.535-10.586-12.067-10.292-1.143 0-3.107 1.937-1.605 2.857zM58.45 357.785c.575-1.344 2.627-.595 2.86 1.26 4.12 22.055 22.957 37.05 45.03 37.05 27.667 0 68-33.816 94.477-70.574 6.77-9.115 24.43-35.287 33.553-55.577a64.67 64.67 0 01-2.151 2.571c-9.52 19.483-25.13 42.562-31.402 51.006-26.488 36.758-66.8 70.574-94.477 70.574-22.074 0-40.9-14.996-45.03-37.05-.294-2.354-3.532-2.94-2.943.294.025.15.057.296.084.447zm158.25-76.373c5.887-4.705 20.897-18.526 22.957-30.582 0-.505-.047-.974-.117-1.425-2.426 11.918-17.047 25.376-22.84 30.007-.628.628-.6 1.576-.27 2.367a1.69 1.69 0 01.271-.367zm35.918-68.212c5.298-6.175 13.245-8.234 17.66-4.705 1.633 1.306 2.537 3.217 2.75 5.417.248-3.03-.64-5.73-2.75-7.417-4.415-3.53-12.362-1.47-17.66 4.705-3.528 3.896-5.176 8.374-4.808 12.038.278-3.22 1.9-6.827 4.808-10.038z"/></g></svg>
    </symbol>
    <symbol id="icon-liquid" viewBox="0 0 512.053 512.053">
      <desc>Liquid Icon</desc>
      <path d="M261.36 437.387C202.48 437.28 154.8 389.6 154.693 330.72c0-5.867-4.8-10.667-10.667-10.667s-10.667 4.8-10.667 10.667c.107 70.613 57.387 127.893 128 128 5.867 0 10.667-4.8 10.667-10.667.001-5.866-4.799-10.666-10.666-10.666z M263.387 3.04c-4.16-4.053-10.773-4.053-14.827 0-6.827 6.72-168.533 166.293-168.533 329.173 0 99.2 78.933 179.84 176 179.84s176-80.64 176-179.84c0-163.84-161.707-322.453-168.64-329.173zm-7.36 487.68c-85.333 0-154.667-71.147-154.667-158.507 0-134.613 122.88-272.747 154.667-306.24 31.787 33.387 154.667 170.88 154.667 306.24-.001 87.36-69.441 158.507-154.667 158.507z"/>
    </symbol>
    <!-- LANGUAGE ICONS COLORED -->
    <symbol id="icon-pug-color" viewBox="0 0 512.071 512.071">
      <desc>Pug Icon</desc>
      <path fill="#959CA6" d="M148.044 200.096c-15.537 0-28.016 12.586-28.016 28 0 15.464 12.536 28 28 28 15.537 0 28.016-12.586 28.016-28 0-15.463-12.536-28-28-28zM364.028 256.096c15.537 0 28.016-12.586 28.016-28 0-15.464-12.536-28-28-28-15.537 0-28.016 12.586-28.016 28 0 15.464 12.536 28 28 28z"/>
      <path fill="#959CA6" d="M510.813 217.942c-12.772-30.677-47.446-104.073-79.617-120.158-22.16-11.074-52.201-9.966-76.647-5.98-44.015-15.904-153.715-15.65-197.027 0-24.454-3.987-54.491-5.091-76.647 5.98-32.047 16.024-66.972 89.788-79.617 120.158-2.853 6.848-.845 15.092 5.894 19.467.09.063 16.875 11.967 16.875 26.687 0 23.904 18.314 57.697 47.666 63.207 10.621 26.889 29.497 34.88 33.156 45.853 3.459 10.377 14.42 26.147 69.437 43.222 52.912 16.421 83.726 15.719 81.75 15.719 22.53 0 59.428-8.791 81.75-15.719 55.017-17.074 65.978-32.845 69.437-43.222 3.658-10.972 22.533-18.96 33.156-45.853 29.351-5.509 47.666-39.303 47.666-63.207 0-14.721 16.785-26.624 16.875-26.687 6.757-4.387 8.736-12.643 5.893-19.467zM56.044 264.096c0-20.026-11.552-35.439-20.59-44.434 9.396-20.831 39.393-83.08 59.743-93.254 6.498-3.247 15.605-5.038 26.522-5.351-29.359 39.775-59.137 110.285-57.605 164.539-4.934-6.901-8.07-15.694-8.07-21.5zm214.566-22.133c-7.34 8.123-21.779 8.155-29.147 0 7.455-2.497 21.683-2.5 29.147 0zm-83.332 144.915c-15.076-30.836-28.096-75.291-15.92-87.468 16.846-16.844 28.89-32.597 43.54-39.525 6.085 8.383 15.25 14.553 25.13 17.706v20.563c-19.419 5.135-35.84 20.202-45.337 36.981a15.897 15.897 0 00-2.774 8.974c0 16.788 22.802 22.252 30.325 7.094.122.061.109.025.05.14l.052-.097c.109.056 11.88-23.144 33.692-23.15 21.472.006 33.607 23.014 33.727 23.247l-.046-.092.01-.005.052.097c-.059-.116-.072-.079.05-.14 7.522 15.157 30.325 9.696 30.325-7.094 0-3.331-1.032-6.413-2.774-8.974-9.582-16.929-25.99-31.865-45.337-36.981v-20.563c9.875-3.152 19.042-9.32 25.13-17.706 14.647 6.927 26.688 22.674 43.541 39.525 12.176 12.177-.844 56.631-15.92 87.468-28.98 8.676-56.476 13.217-68.758 13.219-12.282-.003-39.778-4.543-68.758-13.219zm260.681-101.282c1.545-54.699-28.696-125.374-57.604-164.538 10.917.313 20.024 2.104 26.522 5.351 20.35 10.174 50.347 72.423 59.743 93.254-9.038 8.994-20.59 24.407-20.59 44.434-.002 5.805-3.137 14.598-8.071 21.499zM345.355 122.507a16.05 16.05 0 002.405 1.035c19.774 9.29 68.269 95.318 68.269 156.555 0 58.498-28.256 50.981-39.063 82.597-.905 1.4-4.076 4.226-10.771 7.94 10.832-30.231 19.867-71.146-2.836-93.85-19.422-19.425-35.915-41.769-62.608-49.73-11.776-21.592-48.09-18.956-44.714-18.956-16.925 0-36.571 4.025-44.714 18.956-26.687 7.96-43.186 30.306-62.608 49.73-22.701 22.701-13.672 63.61-2.836 93.85-6.696-3.714-9.866-6.54-10.772-7.94-10.795-31.583-39.063-24.137-39.063-82.597 0-61.64 48.738-147.379 68.268-156.555.833-.275 1.633-.63 2.405-1.035 35.401-14.047 143.674-13.874 178.638 0z"/>
    </symbol>
    <symbol id="icon-sass-color" viewBox="0 0 547.827 547.827">>
      <desc>Sass Icon</desc>
      <path fill="#959CA6" d="M273.915-.001c151.278 0 273.913 122.636 273.913 273.914 0 151.279-122.635 273.914-273.913 273.914C122.636 547.827 0 425.192 0 273.913 0 122.635 122.636 0 273.915 0"/>
      <path fill="#000" d="M219.479 365.155c3.985 14.741 3.548 28.488-.568 40.937a67.462 67.462 0 01-3.282 8.104c-3.174 6.587-7.434 12.752-12.652 18.443-15.914 17.362-38.15 23.928-47.685 18.396-10.296-5.968-5.139-30.448 13.313-49.952 19.851-20.986 48.412-34.478 48.412-34.478l-.044-.085c.823-.443 1.659-.899 2.506-1.365zm226.253-247.918C433.328 68.59 352.664 52.597 276.32 79.72c-45.433 16.14-94.619 41.473-129.984 74.553-42.05 39.331-48.755 73.563-45.99 87.867 9.748 50.472 78.905 83.463 107.334 107.94v.148c-8.383 4.127-69.739 35.177-84.097 66.922-15.15 33.489 2.411 57.52 14.038 60.755 36.026 10.023 72.994-8.005 92.86-37.638 19.172-28.598 17.576-65.526 9.244-83.895 11.494-3.032 24.892-4.39 41.92-2.401 48.05 5.612 57.478 35.614 55.675 48.168-1.801 12.557-11.88 19.461-15.25 21.545-3.37 2.085-4.398 2.807-4.114 4.356.408 2.253 1.968 2.17 4.841 1.683 3.955-.667 25.231-10.214 26.14-33.391 1.159-29.427-27.041-62.344-76.973-61.484-20.564.355-33.495 2.31-42.835 5.787a95.823 95.823 0 00-2.12-2.344c-30.869-32.935-87.934-56.232-85.514-100.508.88-16.096 6.474-58.482 109.652-109.895 84.52-42.115 152.181-30.525 163.874-4.84 16.703 36.695-36.161 104.897-123.936 114.735-33.441 3.749-51.049-9.212-55.429-14.039-4.612-5.081-5.299-5.31-7.02-4.357-2.805 1.553-1.028 6.04 0 8.714 2.62 6.82 13.375 18.915 31.71 24.931 16.127 5.293 55.391 8.201 102.875-10.165 53.18-20.572 94.708-77.796 82.511-125.63"/>
    </symbol>
    <symbol id="icon-js-color" viewBox="0 0 256 256">
      <desc>JavaScript Icon</desc>
      <path fill="#959CA6" d="M0 0h256v256H0V0z"/>
      <path fill="#000" d="M67.312 213.932l19.59-11.856c3.78 6.701 7.218 12.371 15.465 12.371 7.905 0 12.89-3.092 12.89-15.12v-81.798h24.057v82.138c0 24.917-14.606 36.259-35.916 36.259-19.245 0-30.416-9.967-36.087-21.996m85.07-2.576l19.588-11.341c5.157 8.421 11.859 14.607 23.715 14.607 9.969 0 16.325-4.984 16.325-11.858 0-8.248-6.53-11.17-17.528-15.98l-6.013-2.58c-17.357-7.387-28.87-16.667-28.87-36.257 0-18.044 13.747-31.792 35.228-31.792 15.294 0 26.292 5.328 34.196 19.247l-18.732 12.03c-4.125-7.389-8.591-10.31-15.465-10.31-7.046 0-11.514 4.468-11.514 10.31 0 7.217 4.468 10.14 14.778 14.608l6.014 2.577c20.45 8.765 31.963 17.7 31.963 37.804 0 21.654-17.012 33.51-39.867 33.51-22.339 0-36.774-10.654-43.819-24.574"/>
    </symbol>


    <symbol id="icon-jquery-color" viewBox="0 0 100 94">
      <desc>JQuery Icon</desc>
      <svg xmlns="http://www.w3.org/2000/svg" viewBox="0 0 100 94"><defs/>
      <path fill="#959CA6" d="M25.62 17.37c-4.994 7.309-4.372 16.816-.568 24.573l.28.553.189.35c.035.067.075.135.111.2.067.124.133.242.19.363l.363.636.208.35.423.672.189.284c.189.302.402.603.612.9l.017.023c.033.047.07.095.095.142.181.255.378.507.567.756l.21.272.515.645.196.24a29.912 29.912 0 00.718.835l.015.015c.01.013.02.02.029.032a22.427 22.427 0 00.73.784l.234.24.583.582.238.23a32.596 32.596 0 00.799.74l.15.133.726.624.3.244.605.472.323.25.925.677c.023.016.044.033.068.049.217.15.437.297.659.444l.285.194 1.032.642.285.164.775.442c.142.078.287.151.429.225l.553.284.128.062.227.111.879.414.186.095a31.122 31.122 0 001.024.434l.25.1.967.365.12.043a32.72 32.72 0 001.078.36l.26.079c.378.113.732.248 1.112.321C70.055 63.51 77.07 44.247 77.07 44.247c-5.89 7.816-16.346 9.876-26.253 7.582-.375-.094-.739-.205-1.106-.315l-.276-.095c-.357-.111-.712-.23-1.064-.352l-.146-.054a33.097 33.097 0 01-.939-.354l-.264-.106a29.837 29.837 0 01-1.013-.43l-.203-.09-.854-.407-.246-.12a29.203 29.203 0 01-.661-.344l-.442-.236a25.414 25.414 0 01-.792-.453l-.267-.15a40.996 40.996 0 01-1.032-.643c-.095-.062-.185-.127-.279-.19l-.734-.497-.237-.17-.694-.51-.308-.236-.627-.5-.28-.226-.78-.662a.872.872 0 00-.094-.072 36.798 36.798 0 01-.82-.76l-.23-.227-.59-.588-.231-.236a29.61 29.61 0 01-.723-.779l-.036-.038a29.761 29.761 0 01-.733-.85l-.192-.233-.53-.664-.193-.246-.61-.827c-5.5-7.641-7.466-18.179-3.08-26.834m11.608-1.123c-3.61 5.293-3.415 12.375-.599 17.972a23.504 23.504 0 001.598 2.715c.54.79 1.14 1.73 1.859 2.363.26.284.532.567.81.856.07.073.141.142.213.215a23.826 23.826 0 00.828.783c.011.01.022.021.034.03a24.865 24.865 0 00.974.823l.22.174a23.75 23.75 0 001.011.752.567.567 0 00.028.022c.152.107.308.208.462.31.073.049.143.1.217.147a20.461 20.461 0 00.75.468l.105.062.662.378c.077.045.157.084.236.125l.473.244c.023.012.047.022.07.033.318.16.638.312.966.458.07.032.142.06.214.09.262.114.526.223.794.328l.34.127a24.884 24.884 0 00.728.258l.329.107c.347.11.69.248 1.052.31 18.642 3.145 22.946-11.474 22.946-11.474-3.88 5.69-11.392 8.406-19.41 6.287a19.932 19.932 0 01-1.056-.312c-.106-.033-.211-.068-.317-.094a21.132 21.132 0 01-.738-.26l-.334-.126c-.267-.095-.532-.213-.794-.326-.072-.031-.143-.06-.214-.093a18.458 18.458 0 01-.974-.46c-.164-.082-.326-.168-.487-.253l-.282-.148a18.95 18.95 0 01-.617-.354l-.148-.095a24.062 24.062 0 01-.746-.465c-.076-.049-.15-.094-.225-.153l-.484-.326a25.952 25.952 0 01-1.007-.75l-.227-.182c-3.51-2.822-6.292-6.678-7.614-11.05-1.386-4.537-1.087-9.626 1.323-13.757m10.064-.36c-2.129 3.191-2.338 7.153-.851 10.676 1.557 3.74 4.749 6.674 8.474 8.065.153.058.307.11.472.163l.204.066c.22.07.438.152.664.195 10.294 2.025 13.086-5.38 13.828-6.47-2.446 3.588-6.556 4.449-11.599 3.202a14.39 14.39 0 01-1.228-.384 14.762 14.762 0 01-1.45-.613 14.942 14.942 0 01-2.54-1.58C55.604 16.445 52.8 9.794 55.745 4.376"/>
      <g fill="#959CA6"><path d="M31.418 74.34l-.697 2.473.697-2.471zm3.588 5.367l-.769-.005.769.005zm-.19 3.691l-4.604.017 4.605-.017zm.965-3.685l-.77-.005.77.005zm-.55 3.372l.803-3.06-.803 3.06zm16.945-14.089l-1.493 7.025 1.493-7.025zm-3.842 0L47.2 74.244l1.134-5.248z"/><path d="M51.912 68.68h-3.195a.42.42 0 00-.391.315l-2.268 10.497a.42.42 0 01-.39.315h-2.262c-2.238 0-1.98-1.547-1.512-3.667l.014-.064.271-1.446.117-.596 1.032-5.039a.254.254 0 00-.258-.316h-3.28a.416.416 0 00-.389.315l-1.477 7.007c-.813 3.709-.597 7.245 3.818 7.356l.128.003h6.93a.418.418 0 00.39-.316l2.988-14.05c.038-.174-.078-.315-.255-.315zm12.746 11.164c.178 0 .284.142.258.316l-.31 1.516m-.31 1.518l.31-1.518-.31 1.518zm-.39.32l-5.887.028 5.888-.028z"/><path d="M56.112 77.891c-.003-.166.186-.451.363-.451l-.398-.007c-.19 1.809.035.458.035.458zm2.198 5.65h-.062.062zm6.348-3.697c.178 0 .284.142.258.316l-.36 1.763m-4.734 1.623h-.013.013zm-.784-.006h-.046.046zm-.24.001h-.075.076zm-.233 0H58.5h.066zm.437 0h-.194.194zM59.81 83.546l-.771.003.77-.003zm4.099-.024l-4.088.025 4.088-.025zm.378-.328l.26-1.27-.26 1.271zm-5.573.347h-.149.168zm-.467 0h-.227.227zm.242 0H58.3h.19zM11.745 77.93l.496-2.2-.567 2.514-.066.316.138-.632zm5.941-9.285h-3.51a.425.425 0 00-.393.314l-.666 2.93a.246.246 0 00.252.315h3.536a.42.42 0 00.392-.315l.642-2.936c.038-.173-.075-.315-.255-.315zm-.764 4.884l-1.04 4.761 1.04-4.761zM6.73 89.306l2.893.023c-.854 0-2.265-.016-2.894-.024z"/><path d="M12.728 73.528l-.497 2.2.497-2.2zm3.941-.315h-3.537a.425.425 0 00-.395.315l-.992 4.4-.138.632-.945 4.492a6.767 6.767 0 01-.17.62s-.662 1.966-1.771 1.945l-1.101-.021a.425.425 0 00-.397.308l-.733 3.084a.246.246 0 00.247.317l2.895.024c2.775 0 4.237-1.538 5.175-5.96l2.127-9.83c.038-.173-.078-.314-.255-.314zm50.243 10.149c-.178 0-.283-.142-.255-.316l2.66-12.462m1.292 12.461l1.078-5.319-1.078 5.319z"/><path d="M66.696 83.204c-.022-.087-.01-.3.028-.473l1.263-5.916-1.33 6.23c-.039.175.077.317.254.317h.323c-.177 0-.517-.071-.538-.158zm3.705.087a1.72 1.72 0 01-.5.07h.324a.416.416 0 00.387-.316l.064-.316c-.034.174-.189.523-.283.562zm.746-2.906l.476-2.347-.476 2.347zm10.498-8.967l.147.605c.04.173-.072.314-.249.315M70.674 82.73l.472-2.345-.472 2.344zM81.5 70.786l.144.62-.144-.62zm-9.878 7.25l.13-.627.507-2.377-.574 2.692-.063.312zM69.36 70.38l-.11.52-1.263 5.916 1.33-6.231.043-.204z"/><path d="M81.793 72.023l-.147-.605-.217-.945c-.287-1.115-1.13-1.76-2.962-1.76l-8.43-.006a.416.416 0 00-.39.316l-.13.617-.19.933-2.593 12.147c-.037.174-.05.378-.028.472s.362.158.539.158h2.665c.178 0 .402-.032.499-.07s.24-.379.284-.562l1.01-5.003 1.083-5.07a.42.42 0 01.39-.315l8.385-.003c.177 0 .29-.142.249-.315zm10.795-5.475l-.645.003h-2.684a.69.69 0 00-.505.267l-5.935 8.695c-.1.146-.214.124-.255-.048l-.437-1.915a.425.425 0 00-.394-.315h-3.815c-.178 0-.284.139-.235.31l1.702 5.99c.049.17.052.45.009.624l-.756 2.898a.236.236 0 00.243.313h3.78a.44.44 0 00.403-.312l.756-2.898a1.928 1.928 0 01.274-.571l9.646-12.79c.106-.142.049-.257-.129-.255l-1.011.006zM62.274 74.05a.39.39 0 01-.378.33h-4.84c-.167 0-.252-.113-.226-.255l.004-.025.021-.083c.473-1.228 1.404-2.034 3.172-2.034 1.991 0 2.38.973 2.245 2.067zm-1.42-5.584c-6.21 0-7.68 3.769-8.506 7.573-.826 3.878-.754 7.504 5.67 7.504h1.02l.784-.003 4.089-.024a.416.416 0 00.384-.317l.621-3.036c.036-.173-.08-.315-.258-.315h-5.776c-2.297 0-2.98-.61-2.729-2.406h9.234a.37.37 0 00.342-.238.39.39 0 00.023-.08c1.37-5.17.977-8.654-4.896-8.654zm-29.349 5.563l-.087.309-.697 2.472-.698 2.47a.454.454 0 01-.41.31h-3.691c-2.8 0-3.481-2.19-2.8-5.418.68-3.304 2.018-5.357 4.773-5.565 3.765-.284 4.517 2.364 3.61 5.42zm2.531 5.373s1.74-4.225 2.136-6.666c.539-3.267-1.096-8.005-7.414-8.005-6.282 0-9.01 4.523-10.05 9.45-1.04 4.953.323 9.297 6.568 9.263l9.532-.035a.444.444 0 00.404-.314l.803-3.06a.236.236 0 00-.24-.314l-1.539-.01c-.15 0-.236-.098-.219-.226a.351.351 0 01.02-.072z"/><path d="M65.134 76.575a.211.211 0 11-.423 0 .211.211 0 01.423 0z"/></g></svg>
    </symbol>
    <symbol id="icon-liquid-color" viewBox="0 0 512.053 512.053">
      <desc>Liquid Icon</desc>
      <path fill="#959CA6" d="M261.36 437.387C202.48 437.28 154.8 389.6 154.693 330.72c0-5.867-4.8-10.667-10.667-10.667s-10.667 4.8-10.667 10.667c.107 70.613 57.387 127.893 128 128 5.867 0 10.667-4.8 10.667-10.667.001-5.866-4.799-10.666-10.666-10.666z M263.387 3.04c-4.16-4.053-10.773-4.053-14.827 0-6.827 6.72-168.533 166.293-168.533 329.173 0 99.2 78.933 179.84 176 179.84s176-80.64 176-179.84c0-163.84-161.707-322.453-168.64-329.173zm-7.36 487.68c-85.333 0-154.667-71.147-154.667-158.507 0-134.613 122.88-272.747 154.667-306.24 31.787 33.387 154.667 170.88 154.667 306.24-.001 87.36-69.441 158.507-154.667 158.507z"/>
    </symbol>
    <symbol id="icon-git-color" viewBox="0 0 50 50">
      <desc>Git Icon</desc>
      <path fill="#959CA6" d="M46.794 22.088L27.912 3.206C27.108 2.402 26.054 2 25 2s-2.108.402-2.912 1.206L18.354 6.94l4.624 4.624a3.992 3.992 0 014.85.607c1.316 1.316 1.509 3.316.607 4.85l4.543 4.543a3.992 3.992 0 014.85.607 4 4 0 01-5.657 5.657c-1.316-1.316-1.509-3.316-.607-4.85l-4.543-4.543c-.324.19-.666.33-1.021.421v12.285c1.722.446 3 1.997 3 3.859a4 4 0 01-8 0 3.991 3.991 0 013-3.859V18.857a3.962 3.962 0 01-1.828-1.028c-1.316-1.316-1.509-3.316-.607-4.85L16.94 8.354 3.206 22.088a4.117 4.117 0 000 5.823l18.882 18.882C22.892 47.598 23.946 48 25 48s2.108-.402 2.912-1.206l18.882-18.882a4.119 4.119 0 000-5.824z"/>
    </symbol>



    <!-- FOOTER ICONS -->
    <symbol id="icon-git" viewBox="0 0 50 50">
      <desc>Git Icon</desc>
      <path fill="var(--var-xray)" d="M46.794 22.088L27.912 3.206C27.108 2.402 26.054 2 25 2s-2.108.402-2.912 1.206L18.354 6.94l4.624 4.624a3.992 3.992 0 014.85.607c1.316 1.316 1.509 3.316.607 4.85l4.543 4.543a3.992 3.992 0 014.85.607 4 4 0 01-5.657 5.657c-1.316-1.316-1.509-3.316-.607-4.85l-4.543-4.543c-.324.19-.666.33-1.021.421v12.285c1.722.446 3 1.997 3 3.859a4 4 0 01-8 0 3.991 3.991 0 013-3.859V18.857a3.962 3.962 0 01-1.828-1.028c-1.316-1.316-1.509-3.316-.607-4.85L16.94 8.354 3.206 22.088a4.117 4.117 0 000 5.823l18.882 18.882C22.892 47.598 23.946 48 25 48s2.108-.402 2.912-1.206l18.882-18.882a4.119 4.119 0 000-5.824z"/>
    </symbol>
    <symbol id="icon-github" viewBox="0 0 512 512">
      <desc>Github Icon</desc>
      <path d='M255.968 5.329C114.624 5.329 0 120.401 0 262.353c0 113.536 73.344 209.856 175.104 243.872 12.8 2.368 17.472-5.568 17.472-12.384 0-6.112-.224-22.272-.352-43.712-71.2 15.52-86.24-34.464-86.24-34.464-11.616-29.696-28.416-37.6-28.416-37.6-23.264-15.936 1.728-15.616 1.728-15.616 25.696 1.824 39.2 26.496 39.2 26.496 22.848 39.264 59.936 27.936 74.528 21.344 2.304-16.608 8.928-27.936 16.256-34.368-56.832-6.496-116.608-28.544-116.608-127.008 0-28.064 9.984-51.008 26.368-68.992-2.656-6.496-11.424-32.64 2.496-68 0 0 21.504-6.912 70.4 26.336 20.416-5.696 42.304-8.544 64.096-8.64 21.728.128 43.648 2.944 64.096 8.672 48.864-33.248 70.336-26.336 70.336-26.336 13.952 35.392 5.184 61.504 2.56 68 16.416 17.984 26.304 40.928 26.304 68.992 0 98.72-59.84 120.448-116.864 126.816 9.184 7.936 17.376 23.616 17.376 47.584 0 34.368-.32 62.08-.32 70.496 0 6.88 4.608 14.88 17.6 12.352C438.72 472.145 512 375.857 512 262.353 512 120.401 397.376 5.329 255.968 5.329z'/>
    </symbol>
    <symbol id="icon-email" viewBox="0 0 184 184" >>
      <desc>Email Icon</desc>
      <path d="M160.746 24.61H23.254C10.432 24.61 0 35.042 0 47.864v88.271c0 12.822 10.432 23.254 23.254 23.254h137.492c12.822 0 23.254-10.432 23.254-23.254V47.864c0-12.822-10.432-23.254-23.254-23.254zm-3.633 15L92 89.909 26.887 39.61h130.226zm3.633 104.78H23.254c-4.551 0-8.254-3.703-8.254-8.254V49.382l72.415 55.94c1.35 1.043 2.968 1.564 4.585 1.564s3.235-.521 4.585-1.564L169 49.382v86.753c0 4.552-3.703 8.255-8.254 8.255z"/>
    </symbol>
    <symbol id="icon-codepen" viewBox="0 0 24 24">
      <desc>Codepen Icon</desc>
      <path d="M.455 16.512l10.969 7.314c.374.23.774.233 1.152 0l10.969-7.314c.281-.187.455-.522.455-.857V8.343c0-.335-.174-.67-.455-.857L12.576.173a1.044 1.044 0 00-1.152 0L.455 7.486A1.048 1.048 0 000 8.343v7.312c0 .335.174.67.455.857zm10.514 4.528l-8.076-5.384 3.603-2.411 4.473 2.987zm2.062 0v-4.808l4.473-2.987 3.603 2.411zm8.907-7.314l-2.585-1.727 2.585-1.728zM13.031 2.959l8.076 5.384-3.603 2.411-4.473-2.987zM12 9.561l3.643 2.438L12 14.437l-3.643-2.438zm-1.031-6.602v4.808l-4.473 2.987-3.603-2.411zm-8.906 7.314v-.001L4.648 12l-2.585 1.728z"/>
    </symbol>
    <symbol id="icon-linkedin" viewBox="0 0 382 382">
      <desc>Linkedin Icon</desc>
      <path d="M347.445 0H34.555C15.471 0 0 15.471 0 34.555v312.889C0 366.529 15.471 382 34.555 382h312.889C366.529 382 382 366.529 382 347.444V34.555C382 15.471 366.529 0 347.445 0zM118.207 329.844c0 5.554-4.502 10.056-10.056 10.056H65.345c-5.554 0-10.056-4.502-10.056-10.056V150.403c0-5.554 4.502-10.056 10.056-10.056h42.806c5.554 0 10.056 4.502 10.056 10.056v179.441zM86.748 123.432c-22.459 0-40.666-18.207-40.666-40.666S64.289 42.1 86.748 42.1s40.666 18.207 40.666 40.666-18.206 40.666-40.666 40.666zM341.91 330.654a9.247 9.247 0 01-9.246 9.246H286.73a9.247 9.247 0 01-9.246-9.246v-84.168c0-12.556 3.683-55.021-32.813-55.021-28.309 0-34.051 29.066-35.204 42.11v97.079a9.246 9.246 0 01-9.246 9.246h-44.426a9.247 9.247 0 01-9.246-9.246V149.593a9.247 9.247 0 019.246-9.246h44.426a9.247 9.247 0 019.246 9.246v15.655c10.497-15.753 26.097-27.912 59.312-27.912 73.552 0 73.131 68.716 73.131 106.472v86.846z"/>
    </symbol>
    <!-- LIGHT/DARK THEME -->
    <symbol id="icon-sun" viewBox="0 0 24 24">
      <desc>Sun Icon</desc>
      <path d="M12,7A5,5 0 0,1 17,12A5,5 0 0,1 12,17A5,5 0 0,1 7,12A5,5 0 0,1 12,7M12,9A3,3 0 0,0 9,12A3,3 0 0,0 12,15A3,3 0 0,0 15,12A3,3 0 0,0 12,9M12,2L14.39,5.42C13.65,5.15 12.84,5 12,5C11.16,5 10.35,5.15 9.61,5.42L12,2M3.34,7L7.5,6.65C6.9,7.16 6.36,7.78 5.94,8.5C5.5,9.24 5.25,10 5.11,10.79L3.34,7M3.36,17L5.12,13.23C5.26,14 5.53,14.78 5.95,15.5C6.37,16.24 6.91,16.86 7.5,17.37L3.36,17M20.65,7L18.88,10.79C18.74,10 18.47,9.23 18.05,8.5C17.63,7.78 17.1,7.15 16.5,6.64L20.65,7M20.64,17L16.5,17.36C17.09,16.85 17.62,16.22 18.04,15.5C18.46,14.77 18.73,14 18.87,13.21L20.64,17M12,22L9.59,18.56C10.33,18.83 11.14,19 12,19C12.82,19 13.63,18.83 14.37,18.56L12,22Z" />
    </symbol>
    <symbol id="icon-moon" viewBox="0 0 24 24">
      <desc>Moon Icon</desc>
      <path d="M17.75,4.09L15.22,6.03L16.13,9.09L13.5,7.28L10.87,9.09L11.78,6.03L9.25,4.09L12.44,4L13.5,1L14.56,4L17.75,4.09M21.25,11L19.61,12.25L20.2,14.23L18.5,13.06L16.8,14.23L17.39,12.25L15.75,11L17.81,10.95L18.5,9L19.19,10.95L21.25,11M18.97,15.95C19.8,15.87 20.69,17.05 20.16,17.8C19.84,18.25 19.5,18.67 19.08,19.07C15.17,23 8.84,23 4.94,19.07C1.03,15.17 1.03,8.83 4.94,4.93C5.34,4.53 5.76,4.17 6.21,3.85C6.96,3.32 8.14,4.21 8.06,5.04C7.79,7.9 8.75,10.87 10.95,13.06C13.14,15.26 16.1,16.22 18.97,15.95M17.33,17.97C14.5,17.81 11.7,16.64 9.53,14.5C7.36,12.31 6.2,9.5 6.04,6.68C3.23,9.82 3.34,14.64 6.35,17.66C9.37,20.67 14.19,20.78 17.33,17.97Z" />
    </symbol>
    <!-- VSCODE ICONS -->
    <symbol id="icon-debugger" viewBox="0 0 512 512">
      <desc>Debugger Icon</desc>
      <path d="M318.865 181.874c-8.284 0-15 6.716-15 15v9.252h-7.917c-7.53-14.398-22.606-24.252-39.948-24.252s-32.418 9.854-39.948 24.252h-7.917v-9.252c0-8.284-6.716-15-15-15s-15 6.716-15 15v24.252c0 8.284 6.716 15 15 15h17.806v39.748h-17.806c-8.284 0-15 6.716-15 15v24.252c0 8.284 6.716 15 15 15s15-6.716 15-15v-9.252h8.047c7.574 14.261 22.577 23.999 39.818 23.999s32.245-9.738 39.818-23.999h8.047v9.252c0 8.284 6.716 15 15 15s15-6.716 15-15v-24.252c0-8.284-6.716-15-15-15H301.06v-39.748h17.806c8.284 0 15-6.716 15-15v-24.252c-.001-8.284-6.717-15-15.001-15zM271 282.607c0-8.284-6.716-15-15-15s-15 6.716-15 15l-.06-55.674c0-8.304 6.756-15.06 15.06-15.06s15.06 6.756 15.06 15.06z M497 241h-30.666C458.965 136.654 375.346 53.035 271 45.666V15c0-8.284-6.716-15-15-15s-15 6.716-15 15v30.666C136.654 53.035 53.035 136.654 45.666 241H15c-8.284 0-15 6.716-15 15s6.716 15 15 15h30.666C53.035 375.346 136.654 458.965 241 466.334V497c0 8.284 6.716 15 15 15s15-6.716 15-15v-30.666c104.346-7.37 187.965-90.989 195.334-195.334H497c8.284 0 15-6.716 15-15s-6.716-15-15-15zM271 436.247v-19.428c0-8.284-6.716-15-15-15s-15 6.716-15 15v19.428C153.205 429.005 82.995 358.795 75.753 271h19.428c8.284 0 15-6.716 15-15s-6.716-15-15-15H75.753C82.995 153.205 153.205 82.995 241 75.753v19.428c0 8.284 6.716 15 15 15s15-6.716 15-15V75.753C358.795 82.995 429.005 153.205 436.247 241h-19.428c-8.284 0-15 6.716-15 15s6.716 15 15 15h19.428C429.005 358.795 358.795 429.005 271 436.247z"/>
    </symbol>
    <symbol id="icon-extension-blocks" viewBox="0 0 442.556 442.556">
      <desc>Extension Blocks Icon</desc>
      <path d="M84.355 85.534l-33.133 19.084c-6.479 3.732-8.715 12.041-4.982 18.523l19.084 33.131A10 10 0 0074 161.284a9.952 9.952 0 004.98-1.338c4.787-2.756 6.432-8.871 3.674-13.656l-15.871-27.553 27.555-15.873c4.785-2.758 6.43-8.871 3.674-13.656-2.756-4.786-8.869-6.434-13.657-3.674z M439.563 186.835l-73.24-132.881c-6.426-11.654-21.135-15.912-32.789-9.486l-108.645 59.881-48.354-83.941c-6.643-11.531-21.432-15.51-32.963-8.867L12.1 87.274c-5.586 3.219-9.586 8.42-11.26 14.645a23.969 23.969 0 002.393 18.318L78.965 251.71c4.463 7.748 12.598 12.084 20.955 12.084 4.084 0 8.223-1.035 12.008-3.217l10.51-6.053-38.588 57.092a23.975 23.975 0 00-3.699 18.098c1.225 6.332 4.84 11.805 10.182 15.414l125.707 84.963a24.022 24.022 0 0013.502 4.143 24.122 24.122 0 0020.012-10.623l84.963-125.707c5.426-8.025 5.355-18.174.666-25.977l94.893-52.303c11.653-6.424 15.91-21.133 9.487-32.789zm-337.616 56.412a4.143 4.143 0 01-5.652-1.52L20.563 110.254a4.142 4.142 0 011.519-5.65L153.555 28.87a4.143 4.143 0 015.65 1.519l48.164 83.613-6.715 3.703c-5.646 3.111-9.744 8.234-11.535 14.43a23.968 23.968 0 002.047 18.359l17.301 31.393-1.35.777-4.791-3.238a24.039 24.039 0 00-13.502-4.139 24.123 24.123 0 00-20.012 10.619l-20.83 30.82-46.035 26.521zm215.998 43.457l-84.961 125.705a4.147 4.147 0 01-3.443 1.824c-.83 0-1.604-.24-2.303-.711l-125.707-84.965a4.115 4.115 0 01-1.744-2.641 4.123 4.123 0 01.633-3.102l84.963-125.709a4.146 4.146 0 013.441-1.818c.83 0 1.605.238 2.303.709l125.707 84.961a4.144 4.144 0 011.111 5.747zm102.475-84.596l-101.645 56.023-72.43-48.953-37.664-68.338a4.117 4.117 0 01-.352-3.146 4.12 4.12 0 011.977-2.473l132.881-73.238a4.14 4.14 0 015.619 1.625l73.24 132.881a4.14 4.14 0 01-1.626 5.619z M348.242 92.741c-3.609-6.545-11.875-8.934-18.426-5.328l-33.484 18.457c-4.838 2.666-6.598 8.748-3.932 13.584 2.666 4.838 8.748 6.6 13.586 3.932l27.848-15.35 15.35 27.85a9.998 9.998 0 0013.584 3.93c4.838-2.666 6.598-8.748 3.932-13.584l-18.458-33.491zM173.139 333.723l-26.348-17.805 17.809-26.346c3.092-4.576 1.891-10.793-2.686-13.885-4.576-3.092-10.791-1.893-13.885 2.686l-21.412 31.678c-4.188 6.195-2.553 14.645 3.643 18.834l31.68 21.408a9.995 9.995 0 0013.885-2.685c3.091-4.576 1.888-10.791-2.686-13.885z"/>
    </symbol>
    <symbol id="icon-files" viewBox="0 0 24 24">
      <desc>Files Icon</desc>
      <path d="M15,7H20.5L15,1.5V7M8,0H16L22,6V18A2,2 0 0,1 20,20H8C6.89,20 6,19.1 6,18V2A2,2 0 0,1 8,0M4,4V22H20V24H4A2,2 0 0,1 2,22V4H4Z"/>
    </symbol>
    <symbol id="icon-search" viewBox="0 0 512 512">
      <desc>Search Icon</desc>
      <path d="M302.058 0C186.296 0 92.116 94.18 92.116 209.942c0 50.697 18.064 97.253 48.092 133.574L0 483.724 28.276 512l140.208-140.208c36.321 30.028 82.877 48.092 133.574 48.092C417.82 419.884 512 325.704 512 209.942S417.821 0 302.058 0zm0 379.895c-93.712 0-169.953-76.241-169.953-169.953S208.346 39.989 302.058 39.989s169.953 76.241 169.953 169.953-76.241 169.953-169.953 169.953z"/>
    </symbol>
    <symbol id="icon-source-control" viewBox="0 0 100 100">
      <desc>Source Control Icon</desc>
      <path d="M60.77,29.68a8,8,0,0,0-2,15.84v3.09a4,4,0,0,1-4,4H45.23a7.89,7.89,0,0,0-4,1.09V38.19a8,8,0,1,0-4,0V61.81a8.05,8.05,0,1,0,4,0v-1.2a4,4,0,0,1,4-4h9.54a8,8,0,0,0,8-8V45.52a8,8,0,0,0-2-15.84Zm-25.58.73a4,4,0,1,1,4,4.05A4.05,4.05,0,0,1,35.19,30.41Zm4,43.23a4,4,0,1,1,4.05-4A4.05,4.05,0,0,1,39.23,73.64ZM60.77,41.78a4.05,4.05,0,1,1,4-4.05A4.06,4.06,0,0,1,60.77,41.78Z"/>
    </symbol>
    <symbol id="icon-close" viewBox="0 0 24 24">
      <desc>Close Icon</desc>
      <path d="M13.46,12L19,17.54V19H17.54L12,13.46L6.46,19H5V17.54L10.54,12L5,6.46V5H6.46L12,10.54L17.54,5H19V6.46L13.46,12Z" />
    </symbol>
    <!-- VSCODE -->
    <symbol id="icon-preview" viewBox="0 0 48 31">
			<desc>Eye Icon</desc>
			<path d="M24 7.727c-4.262 0-7.725 3.464-7.725 7.727S19.738 23.18 24 23.18s7.725-3.463 7.725-7.726S28.262 7.727 24 7.727zm-.586 5.435c-.959 0-1.758.8-1.758 1.759h-2.557c.053-2.398 1.971-4.317 4.315-4.317v2.558z" />
      <path d="M47.44 13.855C44.83 10.605 35.508 0 24 0 12.493 0 3.17 10.604.56 13.855c-.746.906-.746 2.238 0 3.197C3.17 20.302 12.492 30.907 24 30.907c11.507 0 20.83-10.604 23.44-13.855.747-.906.747-2.238 0-3.197zM24 26.645c-6.18 0-11.188-5.01-11.188-11.191 0-6.182 5.008-11.19 11.188-11.19 6.18 0 11.188 5.008 11.188 11.19 0 6.181-5.008 11.19-11.188 11.19z" />
		</symbol>
    <symbol id="icon-download" viewBox="0 0 956 943">
			<desc>Download Icon</desc>
			<path d="M0 852.98a90.007 90.007 0 0 1 89.98-90.018h776.04a90.02 90.02 0 0 1 0 180.038H89.98A90.008 90.008 0 0 1 0 852.98zm416.813-226.847l-234.15-234.25a89.98 89.98 0 1 1 127.272-127.227l80.583 80.517V90.02a89.982 89.982 0 1 1 179.963 0v255.153l75.587-75.616A90.015 90.015 0 1 1 773.34 396.884l-229.153 229.35c-4.5 5.1-10.5 9.2-16.1 12.8a84.43 84.43 0 0 1-15 7.6 92.67 92.67 0 0 1-28.494 5.8 94.087 94.087 0 0 1-15-.6c-20.286-2.296-38.082-11.898-52.78-25.7z"/>
		</symbol>
  </defs>
</svg>
